<svg width="46" height="46" viewBox="0 0 46 46" fill="none" xmlns="http://www.w3.org/2000/svg">
<rect x="0.5" y="0.5" width="45" height="45" rx="14.5" stroke="#8DF7FF"/>
<path d="M14.7633 35H30.2368C31.7843 35 33 33.7679 33 32.1995V19.878C33 18.9822 32.558 18.198 31.8945 17.6371L24.1582 11.5882C23.1641 10.8039 21.7268 10.8039 20.7316 11.5882L13.1055 17.6371C12.442 18.1967 12 18.9809 12 19.878V32.1995C12 33.7679 13.2158 35 14.7633 35ZM25.2627 33.8795H19.7364V26.5984C19.7364 26.2622 19.958 26.0388 20.2885 26.0388H24.7094C25.0412 26.0388 25.2616 26.2634 25.2616 26.5984L25.2627 33.8795ZM13.1056 19.878C13.1056 19.3184 13.3272 18.8705 13.7691 18.5342L21.5054 12.4853C22.0576 12.0373 22.9427 12.0373 23.4948 12.4853L31.2311 18.5342C31.6731 18.8705 31.8947 19.3184 31.8947 19.878V32.1994C31.8947 33.0953 31.1209 33.8795 30.237 33.8795H26.3684V26.5984C26.3684 25.7025 25.5946 24.9183 24.7107 24.9183H20.2899C19.4059 24.9183 18.6322 25.7025 18.6322 26.5984L18.6309 33.8795H14.7636C13.8784 33.8795 13.1059 33.0953 13.1059 32.1994L13.1056 19.878Z" fill="#8DF7FF"/>
</svg>
