<svg width="72" height="71" viewBox="0 0 72 71" fill="none" xmlns="http://www.w3.org/2000/svg">
<circle cx="35.5784" cy="35.5" r="35" fill="white" stroke="#00416B"/>
<path d="M52.0599 17H31.3631C28.7445 17 26.6138 19.1308 26.6138 21.7493V24.4632C26.6138 24.8377 26.9178 25.1417 27.2922 25.1417C27.6667 25.1417 27.9707 24.8377 27.9707 24.4632V21.7507C27.9707 19.8797 29.4921 18.3583 31.3631 18.3583H52.0586C53.9295 18.3583 55.4509 19.8797 55.4509 21.7507V39.3924C55.4509 41.2633 53.9295 42.7847 52.0586 42.7847H50.3617C50.182 42.7847 50.0093 42.8566 49.8822 42.9837L43.816 49.0499C43.6391 49.2267 43.237 49.1452 43.237 48.8094V43.4632C43.237 43.0887 42.933 42.7847 42.5586 42.7847H38.4877C38.1133 42.7847 37.8093 43.0887 37.8093 43.4632C37.8093 43.8377 38.1133 44.1417 38.4877 44.1417H41.8801V48.8094C41.8801 49.4976 42.2905 50.1139 42.9275 50.3764C43.1389 50.4635 43.36 50.5063 43.5783 50.5063C44.0191 50.5063 44.4503 50.3336 44.7764 50.0089L50.6436 44.1417H52.0586C54.6771 44.1417 56.8079 42.0109 56.8079 39.3924V21.7507C56.8092 19.1308 54.6785 17 52.0599 17Z" fill="#00416B"/>
<path d="M43.2634 30.9066C44.4904 29.9808 45.9524 28.5824 45.9524 27.1785C45.9524 25.968 45.4729 24.8404 44.601 24.0003C43.7291 23.1615 42.5835 22.7249 41.3717 22.7705C39.1691 22.8547 37.3133 24.6387 37.1461 26.833C37.0936 27.5156 37.1944 28.1789 37.4432 28.8076C37.5814 29.1558 37.9766 29.3258 38.3248 29.1876C38.673 29.0494 38.843 28.6542 38.7048 28.306C38.532 27.8721 38.4629 27.4106 38.4989 26.9366C38.6149 25.4194 39.9 24.1854 41.4228 24.1274C42.2629 24.0956 43.0561 24.3982 43.66 24.9786C44.2638 25.5603 44.5955 26.3411 44.5955 27.1785C44.5955 27.8086 43.7719 28.8214 42.4453 29.8232C41.4546 30.5708 40.8632 31.7758 40.8632 33.0443V33.6523C40.8632 34.0267 41.1672 34.3307 41.5416 34.3307C41.9161 34.3307 42.2201 34.0267 42.2201 33.6523V33.0443C42.2201 32.1986 42.6098 31.3999 43.2634 30.9066Z" fill="#00416B"/>
<path d="M40.5244 36.6784C40.5244 37.2395 40.9804 37.6968 41.5428 37.6968C42.1052 37.6968 42.5612 37.2408 42.5612 36.6784C42.5612 36.116 42.1052 35.66 41.5428 35.66C40.9804 35.66 40.5244 36.1174 40.5244 36.6784Z" fill="#00416B"/>
<path d="M27.2922 41.4278C31.4073 41.4278 34.7568 38.0797 34.7568 33.9632C34.7568 29.8468 31.4086 26.4987 27.2922 26.4987C23.1758 26.4987 19.8276 29.8468 19.8276 33.9632C19.8276 38.0797 23.1772 41.4278 27.2922 41.4278ZM27.2922 27.857C30.6597 27.857 33.3998 30.5971 33.3998 33.9646C33.3998 37.3321 30.6597 40.0722 27.2922 40.0722C23.9247 40.0722 21.1846 37.3321 21.1846 33.9646C21.186 30.5971 23.9247 27.857 27.2922 27.857Z" fill="#00416B"/>
<path d="M22.5429 44.1431H32.0429C35.4104 44.1431 38.1506 46.8832 38.1506 50.2507V54.3215C38.1506 54.696 38.4546 55 38.829 55C39.2035 55 39.5075 54.696 39.5075 54.3215V50.2507C39.5075 46.1357 36.1594 42.7861 32.0429 42.7861H22.5429C18.4279 42.7861 15.0784 46.1343 15.0784 50.2507V54.3215C15.0784 54.696 15.3824 55 15.7568 55C16.1313 55 16.4353 54.696 16.4353 54.3215V50.2507C16.4353 46.8818 19.1755 44.1431 22.5429 44.1431Z" fill="#00416B"/>
<path d="M20.5061 50.5892V54.3215C20.5061 54.696 20.8101 55 21.1846 55C21.559 55 21.863 54.696 21.863 54.3215V50.5892C21.863 50.2148 21.559 49.9108 21.1846 49.9108C20.8101 49.9108 20.5061 50.2148 20.5061 50.5892Z" fill="#00416B"/>
<path d="M34.0784 54.3215V50.5892C34.0784 50.2148 33.7744 49.9108 33.3999 49.9108C33.0254 49.9108 32.7214 50.2148 32.7214 50.5892V54.3215C32.7214 54.696 33.0254 55 33.3999 55C33.7744 55 34.0784 54.696 34.0784 54.3215Z" fill="#00416B"/>
</svg>
