<svg width="46" height="46" viewBox="0 0 46 46" fill="none" xmlns="http://www.w3.org/2000/svg">
<rect x="0.5" y="0.5" width="45" height="45" rx="14.5" stroke="#8DF7FF"/>
<path d="M18.9133 15.8931C19.1706 15.3723 19.3742 14.8642 19.6605 14.4093C20.25 13.4693 21.1181 12.8689 22.126 12.4994C22.9963 12.1807 23.9046 11.9729 24.8297 12.0029C26.7795 12.0618 28.3466 12.8897 29.4316 14.601C29.85 15.2603 29.9529 16.0051 30.0044 16.7649C30.0558 17.527 29.8578 18.266 29.7269 19.0085C29.7012 19.1597 29.6721 19.3098 29.6386 19.4957C30.718 19.3837 31.6633 19.6528 32.5738 20.11C33.6365 20.6447 34.2663 21.565 34.6813 22.655C34.8737 23.1607 34.9878 23.6954 34.999 24.2543C35.0303 25.9805 34.3055 27.2807 32.9799 28.2751C32.1633 28.8871 31.2416 29.2092 30.2628 29.3801C29.7124 29.4771 29.152 29.5429 28.596 29.5753C28.2895 29.5926 28.0803 29.7139 27.9662 29.9829C27.8231 30.3201 27.6709 30.6653 27.6049 31.021C27.5221 31.4759 27.4729 31.9516 27.5042 32.4101C27.5412 32.9331 27.2928 33.2345 26.9114 33.462C26.6709 33.6063 26.4102 33.7403 26.1407 33.8015C25.4594 33.9551 24.7771 34.0463 24.0645 33.9758C22.2836 33.798 20.5734 33.3223 18.8695 32.7992C17.4231 32.3523 16.0863 31.6733 14.8034 30.8627C14.5114 30.6768 14.2138 30.5025 13.9152 30.3281C13.5628 30.1214 13.4912 29.9078 13.6914 29.5325C14.1959 28.5926 14.4845 27.573 14.7049 26.5348C14.7799 26.1803 14.7653 25.7958 14.734 25.4297C14.6993 25.0221 14.3984 24.7912 14.0785 24.6053C13.5169 24.2831 12.9934 23.9078 12.5459 23.4263C11.3971 22.1908 10.9105 20.6977 11.0134 19.0129C11.094 17.6712 11.8781 16.7659 12.9464 16.11C13.8089 15.5812 14.753 15.341 15.7609 15.3595C16.5741 15.3745 17.3818 15.416 18.1693 15.6458C18.421 15.7197 18.6704 15.8109 18.9199 15.8941L18.9133 15.8931ZM26.4247 32.2633C26.465 31.9735 26.5187 31.7079 26.5332 31.4388C26.5791 30.664 26.8229 29.9551 27.2033 29.2992C27.4672 28.8465 27.8621 28.5775 28.3856 28.5371C28.7727 28.5047 29.1586 28.4574 29.5479 28.4366C30.1777 28.4043 30.7907 28.2715 31.369 28.029C32.9608 27.3604 34.3043 26.0187 33.9374 23.7463C33.6857 22.1736 32.7114 20.9681 31.0391 20.6043C30.4462 20.4773 29.8623 20.4357 29.2951 20.6932C29.0401 20.8087 28.8052 20.8237 28.5994 20.6228C28.3958 20.4242 28.3812 20.1828 28.4651 19.9103C28.568 19.5732 28.6542 19.2302 28.7313 18.8849C28.9003 18.1309 29.0345 17.3711 28.9808 16.5905C28.9495 16.1241 28.9036 15.6472 28.6653 15.243C28.1474 14.3654 27.4393 13.7003 26.4919 13.3539C24.9884 12.8066 23.505 12.9902 22.0678 13.5964C21.0051 14.0456 20.269 14.8527 19.8976 15.9913C19.8171 16.2338 19.7656 16.4878 19.6941 16.7337C19.58 17.124 19.3394 17.2395 18.9726 17.0825C18.8585 17.0317 18.7634 16.9381 18.6515 16.8873C18.3685 16.7626 18.0877 16.6148 17.7891 16.5386C17.0731 16.355 16.3404 16.3284 15.6066 16.3469C14.6446 16.37 13.762 16.6517 13.0002 17.2718C12.4991 17.6794 12.0841 18.1737 12.0382 18.8653C11.989 19.5893 11.989 20.3168 12.2306 21.0142C12.5024 21.8006 12.895 22.5072 13.5506 23.0211C13.8973 23.2936 14.2665 23.5384 14.6356 23.7751C15.3885 24.2543 15.8068 24.9368 15.7643 25.8536C15.742 26.3478 15.6357 26.8408 15.5205 27.32C15.3806 27.9078 15.1916 28.4851 15.0138 29.0937C15.1256 29.0994 15.2319 29.1144 15.337 29.1144C16.167 29.1087 16.9892 29.2207 17.7913 29.4158C19.1862 29.7553 20.5744 30.1248 21.9548 30.5209C22.8709 30.7841 23.7793 31.082 24.6697 31.4227C25.2514 31.6444 25.795 31.9631 26.4226 32.2714L26.4247 32.2633ZM25.5231 32.9169C25.0678 32.7044 24.6987 32.4942 24.306 32.3557C23.4838 32.0601 22.6538 31.7853 21.8171 31.5336C20.1593 31.037 18.5038 30.522 16.7999 30.2149C16.5997 30.1791 16.4017 30.141 16.2015 30.1179C16.0013 30.0948 15.801 30.0879 15.5997 30.0763C16.4129 30.7207 17.3011 31.1525 18.2195 31.4978C19.9343 32.1363 21.6871 32.6594 23.4949 32.9342C24.1281 33.0312 24.7802 33.0936 25.5252 32.9192L25.5231 32.9169ZM27.2357 24.8998C27.1183 24.8432 26.9147 24.8617 26.8062 24.9379C26.6317 25.0626 26.4851 25.2427 26.3621 25.4252C25.89 26.1226 25.428 26.8258 24.9705 27.536C24.8161 27.775 24.6752 28.0302 24.5555 28.2865C24.4526 28.5082 24.5298 28.7473 24.7099 28.8812C24.8956 29.0174 25.1081 28.9909 25.2971 28.7957C25.352 28.7392 25.3945 28.671 25.437 28.6041C26.0522 27.6399 26.6686 26.6769 27.2782 25.7104C27.361 25.5776 27.427 25.4355 27.5154 25.267C27.4181 25.1307 27.3521 24.954 27.2324 24.8975L27.2357 24.8998ZM23.1003 23.4806C23.0835 23.1966 22.9224 22.9934 22.6998 22.9691C22.4795 22.946 22.2994 23.1134 22.2334 23.4091C22.2222 23.4564 22.2244 23.506 22.2166 23.5511C21.9873 24.6631 21.7579 25.7739 21.5298 26.8882C21.5152 26.9505 21.4984 27.0129 21.4951 27.0775C21.4805 27.3165 21.6159 27.5383 21.8161 27.6122C22.0052 27.6803 22.2401 27.5741 22.3486 27.3339C22.4314 27.148 22.4918 26.9436 22.5321 26.7392C22.6976 25.8755 22.8531 25.0094 23.0108 24.1434C23.0455 23.9541 23.0858 23.7682 23.1082 23.6562V23.4783L23.1003 23.4806ZM18.9591 22.9668C18.9334 22.5881 18.7869 22.4137 18.5072 22.4056C18.2063 22.3999 18.0519 22.5834 18.0262 22.9853C18.0172 23.1123 18.0262 23.2428 18.0228 23.3721C18.0139 23.5973 18.0116 23.8213 17.9938 24.0464C17.9389 24.7496 17.8819 25.454 17.8248 26.1572C17.8192 26.2219 17.8192 26.2877 17.8248 26.3489C17.836 26.5648 17.9389 26.715 18.1403 26.7773C18.3439 26.842 18.5408 26.76 18.6526 26.5464C18.7097 26.4367 18.7556 26.3073 18.7645 26.1826C18.8361 25.2542 18.8987 24.3259 18.9591 23.4714C18.9591 23.2531 18.9681 23.1076 18.9591 22.9633L18.9591 22.9668Z" fill="#8DF7FF"/>
</svg>
