<svg width="72" height="71" viewBox="0 0 72 71" fill="none" xmlns="http://www.w3.org/2000/svg">
<circle cx="35.5784" cy="35.5" r="35" fill="white" stroke="#00416B"/>
<path d="M24.8559 46.6547C22.6803 46.6547 20.9919 44.1683 20.9919 42.0347C20.9919 41.0099 21.399 40.027 22.1237 39.3024C22.8483 38.5778 23.8311 38.1707 24.8559 38.1707C25.8807 38.1707 26.8636 38.5778 27.5882 39.3024C28.3128 40.027 28.7199 41.0099 28.7199 42.0347C28.7199 44.1683 27.0315 46.6547 24.8559 46.6547ZM24.8559 38.9435C24.0376 38.9446 23.253 39.2702 22.6743 39.8488C22.0956 40.4275 21.7701 41.2121 21.7689 42.0305C21.7689 43.7609 23.1927 45.8777 24.8559 45.8777C26.5191 45.8777 27.9429 43.7777 27.9429 42.0305C27.9418 41.2121 27.6162 40.4275 27.0376 39.8488C26.4589 39.2702 25.6743 38.9446 24.8559 38.9435Z" fill="#00416B"/>
<path d="M22.8357 55C20.5803 55 19.2741 54.9244 18.5349 54.1852C18.0771 53.74 17.8713 53.0596 17.8713 52.0222C17.8713 49.0486 21.7143 46.5034 24.8559 46.5034C27.9975 46.5034 31.8447 49.0486 31.8447 52.0222C31.8447 53.0176 31.6263 53.7022 31.1685 54.1516C30.2991 55.0168 28.6485 54.9916 25.9353 54.9916H22.8357V55ZM24.8559 54.2188H25.9353C28.4553 54.2188 29.9799 54.2188 30.6183 53.5972C30.9249 53.2948 31.0677 52.7908 31.0677 52.018C31.0677 49.498 27.5943 47.2762 24.8559 47.2762C22.1175 47.2762 18.6483 49.5148 18.6483 52.0222C18.6483 52.837 18.7827 53.3368 19.0683 53.635C19.6731 54.2356 21.1935 54.2314 23.7177 54.223L24.8559 54.2188Z" fill="#00416B"/>
<path d="M47.3008 46.6547C45.1252 46.6547 43.4368 44.1683 43.4368 42.0347C43.4368 41.0099 43.8439 40.027 44.5685 39.3024C45.2931 38.5778 46.276 38.1707 47.3008 38.1707C48.3256 38.1707 49.3084 38.5778 50.033 39.3024C50.7577 40.027 51.1648 41.0099 51.1648 42.0347C51.1648 44.1683 49.4764 46.6547 47.3008 46.6547ZM47.3008 38.9435C46.4824 38.9446 45.6978 39.2702 45.1192 39.8488C44.5405 40.4275 44.2149 41.2121 44.2138 42.0305C44.2138 43.7609 45.6376 45.8777 47.3008 45.8777C48.964 45.8777 50.3878 43.7777 50.3878 42.0305C50.3867 41.2121 50.0611 40.4275 49.4824 39.8488C48.9037 39.2702 48.1192 38.9446 47.3008 38.9435Z" fill="#00416B"/>
<path d="M45.2764 55C43.021 55 41.7148 54.9244 40.9756 54.1852C40.5178 53.7274 40.312 53.0596 40.312 52.0222C40.312 49.0486 44.155 46.5034 47.3008 46.5034C50.4466 46.5034 54.2854 49.0486 54.2854 52.0222C54.2854 53.0176 54.0712 53.7022 53.6092 54.1516C52.7398 55.0168 51.0892 54.9916 48.376 54.9916H45.2764V55ZM47.3008 54.2188H48.3802C50.9002 54.2188 52.4206 54.2188 53.0632 53.5972C53.3656 53.2948 53.5084 52.7908 53.5084 52.018C53.5084 49.498 50.035 47.2762 47.3008 47.2762C44.5666 47.2762 41.089 49.5148 41.089 52.0222C41.089 52.837 41.2234 53.3368 41.509 53.635C42.1306 54.2356 43.6384 54.2314 46.1584 54.223L47.3008 54.2188Z" fill="#00416B"/>
<path d="M35.8852 21.484C33.7096 21.484 32.0212 19.0018 32.0212 16.864C32.0212 15.8392 32.4283 14.8564 33.153 14.1317C33.8776 13.4071 34.8604 13 35.8852 13C36.91 13 37.8929 13.4071 38.6175 14.1317C39.3421 14.8564 39.7492 15.8392 39.7492 16.864C39.7492 19.0018 38.0608 21.484 35.8852 21.484ZM35.8852 13.777C35.0669 13.7781 34.2823 14.1037 33.7036 14.6824C33.1249 15.2611 32.7994 16.0456 32.7982 16.864C32.7982 18.5944 34.222 20.707 35.8852 20.707C37.5484 20.707 38.9722 18.607 38.9722 16.864C38.9711 16.0456 38.6455 15.2611 38.0669 14.6824C37.4882 14.1037 36.7036 13.7781 35.8852 13.777Z" fill="#00416B"/>
<path d="M33.8608 29.8336C31.6054 29.8336 30.3034 29.7538 29.56 29.0146C29.1022 28.561 28.9006 27.8932 28.9006 26.8558C28.9006 23.8822 32.7394 21.337 35.8852 21.337C39.031 21.337 42.8698 23.8822 42.8698 26.86C42.8698 27.8512 42.6556 28.54 42.1936 28.9894C41.3284 29.8294 39.6736 29.8294 36.9604 29.8294H33.8608V29.8336ZM35.8852 29.0482H36.9646C39.4846 29.0482 41.0092 29.0482 41.6476 28.4308C41.9584 28.12 42.0928 27.6286 42.0928 26.86C42.0928 24.34 38.6194 22.1182 35.8852 22.1182C33.151 22.1182 29.6776 24.34 29.6776 26.86C29.6776 27.6748 29.8078 28.1704 30.0976 28.4686C30.7024 29.0734 32.2228 29.0692 34.7428 29.0566L35.8852 29.0482Z" fill="#00416B"/>
<path d="M35.8222 40.9174H35.65C35.3443 40.8901 35.0501 40.7877 34.7935 40.6195C34.5368 40.4512 34.3257 40.2222 34.1787 39.9527C34.0318 39.6833 33.9537 39.3817 33.9512 39.0748C33.9488 38.7679 34.0221 38.4652 34.1647 38.1934C34.3074 37.9217 34.5148 37.6893 34.7688 37.517C35.0227 37.3446 35.3153 37.2376 35.6205 37.2055C35.9257 37.1733 36.2341 37.2169 36.5184 37.3326C36.8027 37.4482 37.0541 37.6321 37.2502 37.8682C37.5635 38.249 37.7144 38.7378 37.6702 39.229C37.6482 39.4724 37.5783 39.7091 37.4644 39.9253C37.3505 40.1416 37.1949 40.3331 37.0066 40.489C36.6753 40.768 36.2554 40.9199 35.8222 40.9174ZM35.8222 37.9774C35.5666 37.9765 35.3192 38.0674 35.125 38.2336C34.9617 38.3718 34.8429 38.5552 34.7837 38.7607C34.7244 38.9663 34.7274 39.1848 34.7921 39.3887C34.8568 39.5926 34.9804 39.7728 35.1474 39.9065C35.3143 40.0403 35.5171 40.1216 35.7303 40.1403C35.9434 40.159 36.1572 40.1142 36.3449 40.0115C36.5326 39.9089 36.6857 39.7529 36.7849 39.5634C36.8841 39.3739 36.925 39.1592 36.9024 38.9465C36.8799 38.7338 36.7948 38.5325 36.658 38.368C36.4716 38.1475 36.2063 38.0088 35.9188 37.9816L35.8222 37.9774Z" fill="#00416B"/>
<path d="M40.5556 44.5001C40.5034 44.4994 40.4519 44.4874 40.4048 44.4649C40.3577 44.4424 40.316 44.41 40.2826 44.3699L36.742 40.1363C36.6818 40.0623 36.653 39.9677 36.6617 39.8728C36.6703 39.7778 36.7157 39.69 36.7882 39.6281C36.8242 39.5979 36.8659 39.5751 36.9108 39.5611C36.9557 39.5471 37.0029 39.5421 37.0498 39.5464C37.0966 39.5507 37.1421 39.5642 37.1837 39.5861C37.2253 39.6081 37.2622 39.638 37.2922 39.6743L40.8328 43.9121C40.8629 43.9481 40.8857 43.9898 40.8997 44.0347C40.9137 44.0796 40.9187 44.1268 40.9144 44.1737C40.9101 44.2205 40.8966 44.266 40.8747 44.3076C40.8527 44.3492 40.8228 44.3861 40.7866 44.4161C40.7212 44.4693 40.6398 44.4989 40.5556 44.5001Z" fill="#00416B"/>
<path d="M35.9483 37.8389C35.9014 37.8389 35.855 37.8296 35.8117 37.8117C35.7684 37.7938 35.729 37.7675 35.6959 37.7343C35.6627 37.7012 35.6364 37.6618 35.6185 37.6185C35.6005 37.5752 35.5913 37.5288 35.5913 37.4819V31.9631C35.5913 31.9162 35.6005 31.8698 35.6185 31.8265C35.6364 31.7831 35.6627 31.7438 35.6959 31.7106C35.729 31.6775 35.7684 31.6512 35.8117 31.6333C35.855 31.6153 35.9014 31.6061 35.9483 31.6061C35.9955 31.6061 36.0423 31.6154 36.0859 31.6337C36.1295 31.6519 36.169 31.6785 36.2022 31.7121C36.2354 31.7457 36.2617 31.7856 36.2793 31.8294C36.297 31.8732 36.3059 31.92 36.3053 31.9673V37.4819C36.3053 37.5766 36.2677 37.6674 36.2007 37.7343C36.1338 37.8013 36.043 37.8389 35.9483 37.8389Z" fill="#00416B"/>
<path d="M31.0383 44.4412C30.9536 44.4422 30.8715 44.4123 30.8073 44.3572C30.7714 44.3269 30.7418 44.2899 30.7202 44.2481C30.6987 44.2064 30.6856 44.1608 30.6817 44.114C30.6778 44.0671 30.6831 44.02 30.6975 43.9753C30.7118 43.9305 30.7349 43.889 30.7653 43.8532L34.3227 39.6532C34.384 39.5808 34.4715 39.5357 34.566 39.5278C34.6605 39.52 34.7543 39.55 34.8267 39.6112C34.8991 39.6725 34.9442 39.76 34.9521 39.8545C34.9599 39.949 34.93 40.0428 34.8687 40.1152L31.3155 44.3152C31.2814 44.3554 31.2389 44.3875 31.191 44.4093C31.1431 44.431 31.0909 44.442 31.0383 44.4412Z" fill="#00416B"/>
</svg>
