<svg width="46" height="46" viewBox="0 0 46 46" fill="none" xmlns="http://www.w3.org/2000/svg">
<rect x="0.5" y="0.5" width="45" height="45" rx="14.5" stroke="#8DF7FF"/>
<path d="M28.1282 23.0852H28.3226C29.3465 23.024 30.3728 22.4916 31.3683 21.4999C32.4006 20.4565 33.1896 19.2004 33.6793 17.8204C34.1866 16.3434 34.0894 15.1515 33.4067 14.4754C31.9846 13.0621 28.4506 14.4095 26.3458 16.5013C24.6179 18.2185 24.4852 19.8392 25.054 21.0476C24.6511 21.4198 24.068 21.9569 23.3949 22.5646L21.9395 21.2243C22.5084 20.0158 22.3757 18.3975 20.6501 16.6803L17.2891 13.3023C17.0949 13.109 16.8313 13.0002 16.5564 13C16.2814 12.9998 16.0177 13.1081 15.8231 13.3012C15.6286 13.4942 15.5191 13.7562 15.5189 14.0294C15.5187 14.3026 15.6277 14.5647 15.8219 14.7581L18.3486 17.281C18.39 17.3247 18.413 17.3824 18.413 17.4423C18.413 17.5023 18.39 17.56 18.3486 17.6037C18.3047 17.6448 18.2466 17.6676 18.1863 17.6676C18.1259 17.6676 18.0679 17.6448 18.0239 17.6037L15.4972 15.0738C15.3024 14.8893 15.0427 14.7879 14.7736 14.7912C14.5045 14.7944 14.2474 14.9021 14.0571 15.0912C13.8668 15.2803 13.7585 15.5359 13.7552 15.8033C13.7519 16.0707 13.8539 16.3288 14.0395 16.5225L16.5781 19.0524C16.606 19.0974 16.6179 19.1505 16.6118 19.203C16.6058 19.2556 16.5821 19.3045 16.5446 19.3421C16.5071 19.3796 16.4579 19.4035 16.4051 19.4099C16.3523 19.4164 16.2988 19.4049 16.2533 19.3775L13.7148 16.8475C13.5184 16.6746 13.2631 16.5826 13.0008 16.5903C12.7385 16.5979 12.489 16.7047 12.3032 16.8888C12.1173 17.0729 12.0091 17.3204 12.0005 17.5811C11.992 17.8417 12.0837 18.0958 12.2571 18.2915L15.63 21.6718C16.7795 22.8143 17.8888 23.2548 18.8582 23.2548C19.3238 23.2538 19.7835 23.1509 20.2045 22.9533L21.4773 24.3196C20.259 25.4267 19.0715 26.4867 18.396 27.0497C18.1258 27.2735 17.8319 27.5043 17.5475 27.7281C16.2984 28.7057 15.009 29.7163 14.9402 30.8423C14.9329 31.1024 14.9831 31.361 15.0871 31.5999C15.1911 31.8388 15.3464 32.0522 15.5423 32.225C15.7068 32.4064 15.9064 32.5531 16.1291 32.6563C16.3518 32.7595 16.5932 32.8171 16.8388 32.8257H16.9336C18.0666 32.7574 19.0834 31.4759 20.067 30.2345C20.2922 29.9518 20.5245 29.6597 20.7497 29.3912C21.3185 28.734 22.3377 27.5939 23.4209 26.4137C24.5634 27.6575 25.6703 28.8918 26.2486 29.5679C26.4857 29.8341 26.7061 30.1261 26.9313 30.4088C27.9149 31.6502 28.9317 32.934 30.0671 33H30.1595C30.4052 32.9918 30.6467 32.9344 30.8695 32.8312C31.0923 32.7279 31.2918 32.5811 31.456 32.3993C31.6525 32.226 31.8082 32.0118 31.9122 31.7721C32.0163 31.5323 32.0661 31.2728 32.0581 31.0119C31.9917 29.8859 30.6999 28.8753 29.4508 27.8977C29.1664 27.6622 28.8725 27.4431 28.6046 27.2193C27.8936 26.6304 26.6231 25.4903 25.3408 24.3266L26.789 22.7743C27.2066 22.9756 27.6641 23.0819 28.1282 23.0852ZM31.347 31.0613C31.3197 31.379 31.1803 31.6768 30.9535 31.9022C30.7267 32.1276 30.427 32.2661 30.1074 32.2933C29.292 32.2462 28.3747 31.0896 27.5001 29.973C27.2631 29.6856 27.0261 29.3888 26.8056 29.1132C25.6205 27.6999 22.2571 24.0911 20.8421 22.5788C21.1236 22.3696 21.3742 22.1222 21.5864 21.8438C23.1104 23.2572 26.7416 26.588 28.159 27.7682C28.4364 28.0037 28.735 28.2393 29.0242 28.4584C30.1358 29.3394 31.2996 30.251 31.347 31.0613ZM19.5148 29.7964C18.6283 30.9129 17.711 32.0695 16.9075 32.1166C16.7437 32.1178 16.5817 32.0827 16.4333 32.0138C16.2849 31.945 16.1538 31.8441 16.0495 31.7185C15.9264 31.6152 15.8274 31.4864 15.7594 31.3412C15.6915 31.196 15.6562 31.0378 15.656 30.8776C15.7034 30.0673 16.8672 29.1556 17.9907 28.2864C18.2799 28.0508 18.5785 27.8153 18.8559 27.5962C19.5385 27.0285 20.7378 25.9473 21.9656 24.8425C22.2785 25.1817 22.6079 25.5351 22.9374 25.8955C21.8329 27.0992 20.7734 28.2699 20.2093 28.9413C19.977 29.2122 19.7423 29.509 19.5148 29.7964ZM16.1396 21.1724L12.7596 17.7945C12.7145 17.7493 12.6841 17.6918 12.6723 17.6292C12.6605 17.5667 12.6678 17.5021 12.6933 17.4438C12.7189 17.3854 12.7614 17.336 12.8155 17.302C12.8695 17.2679 12.9326 17.2507 12.9966 17.2527C13.0403 17.2512 13.0839 17.2586 13.1246 17.2744C13.1654 17.2902 13.2025 17.3141 13.2336 17.3446L15.7366 19.8745C15.9189 20.0164 16.147 20.0871 16.3781 20.0733C16.6092 20.0595 16.8273 19.9622 16.9911 19.7996C17.155 19.6371 17.2533 19.4206 17.2676 19.1909C17.2819 18.9613 17.2111 18.7344 17.0687 18.553L14.5444 16.0231C14.5144 15.9939 14.4906 15.9591 14.4744 15.9207C14.4581 15.8822 14.4498 15.841 14.4498 15.7993C14.4498 15.7576 14.4581 15.7163 14.4744 15.6779C14.4906 15.6395 14.5144 15.6047 14.5444 15.5755C14.6052 15.5182 14.6858 15.4862 14.7696 15.4862C14.8534 15.4862 14.934 15.5182 14.9947 15.5755L17.5261 18.1031C17.7084 18.245 17.9366 18.3157 18.1677 18.3019C18.3988 18.2881 18.6168 18.1908 18.7807 18.0282C18.9445 17.8657 19.0429 17.6492 19.0571 17.4195C19.0714 17.1899 19.0007 16.963 18.8582 16.7816L16.3268 14.2516C16.2967 14.2226 16.2728 14.1878 16.2565 14.1493C16.2402 14.1109 16.2319 14.0696 16.232 14.0279C16.2307 13.9842 16.2384 13.9408 16.2547 13.9003C16.2711 13.8598 16.2956 13.823 16.3268 13.7923C16.3879 13.7355 16.4684 13.7039 16.552 13.7039C16.6356 13.7039 16.7161 13.7355 16.7772 13.7923L20.1547 17.1797C21.7949 18.8074 22.0035 20.4775 20.726 21.7378C19.4484 22.9981 17.7774 22.8002 16.1396 21.1724ZM23.9305 23.0569L25.4285 21.6789C25.5353 21.8135 25.6509 21.941 25.7746 22.0605C25.8992 22.1841 26.0323 22.299 26.1728 22.4044L24.817 23.8579L23.9305 23.0569ZM26.8483 17.0007C28.325 15.5331 30.3705 14.5932 31.7476 14.5932C31.9565 14.5779 32.1665 14.6038 32.3654 14.6693C32.5642 14.7347 32.7482 14.8386 32.9066 14.9748C33.3807 15.4459 33.4186 16.4023 33.0085 17.6013C32.5557 18.8735 31.8275 20.0314 30.8753 20.9934C29.2351 22.6235 27.557 22.8308 26.2866 21.5611C25.0161 20.2914 25.2081 18.6307 26.8483 17.0007Z" fill="#8DF7FF"/>
</svg>
