<svg width="18" height="19" viewBox="0 0 18 19" fill="none" xmlns="http://www.w3.org/2000/svg">
<g clip-path="url(#clip0_30_3078)">
<path d="M14.6777 0.189941C14.8184 0.189941 14.9326 0.236816 15.0205 0.330566C15.1084 0.424316 15.1523 0.535645 15.1523 0.664551V4.46143C15.1523 4.59033 15.1084 4.69873 15.0205 4.78662C14.9326 4.87451 14.8184 4.91846 14.6777 4.91846H11.8477C11.7188 4.91846 11.6074 4.96533 11.5137 5.05908C11.4199 5.15283 11.373 5.26416 11.373 5.39307V6.81689H14.6777C14.8184 6.81689 14.9355 6.86963 15.0293 6.9751C15.123 7.08057 15.1641 7.19775 15.1523 7.32666V7.41455L14.2031 11.1938C14.168 11.2993 14.1094 11.3872 14.0273 11.4575C13.9453 11.5278 13.8457 11.563 13.7285 11.563H11.373V17.7153C11.373 17.8325 11.335 17.9351 11.2588 18.0229C11.1826 18.1108 11.0918 18.1665 10.9863 18.1899H10.8984H7.10156C6.97266 18.1899 6.86133 18.1431 6.76758 18.0493C6.67383 17.9556 6.62695 17.8442 6.62695 17.7153V11.563H4.27148C4.1543 11.563 4.05176 11.5249 3.96387 11.4487C3.87598 11.3726 3.82031 11.2817 3.79688 11.1763V11.0884V7.2915C3.79688 7.1626 3.84082 7.05127 3.92871 6.95752C4.0166 6.86377 4.13086 6.81689 4.27148 6.81689H6.62695V5.39307C6.62695 4.70166 6.75586 4.04541 7.01367 3.42432C7.2832 2.80322 7.64355 2.2583 8.09473 1.78955C8.5459 1.3208 9.07617 0.945801 9.68555 0.664551C10.2832 0.383301 10.9336 0.225098 11.6367 0.189941H11.8477H14.6777ZM14.2031 1.13916H11.8477C11.25 1.13916 10.6934 1.25049 10.1777 1.47314C9.66211 1.6958 9.21094 2.00049 8.82422 2.38721C8.4375 2.77393 8.13281 3.2251 7.91016 3.74072C7.6875 4.25635 7.57617 4.80713 7.57617 5.39307V7.2915C7.57617 7.42041 7.5293 7.53174 7.43555 7.62549C7.3418 7.71924 7.23047 7.76611 7.10156 7.76611H4.72852V10.6138H7.10156C7.21875 10.6138 7.32129 10.6519 7.40918 10.728C7.49707 10.8042 7.55273 10.895 7.57617 11.0005V11.0884V17.2407H10.4238V11.0884C10.4238 10.9712 10.4619 10.8687 10.5381 10.7808C10.6143 10.6929 10.7051 10.6372 10.8105 10.6138H10.8984H13.3594L14.0801 7.76611H10.8984C10.7812 7.76611 10.6787 7.72803 10.5908 7.65186C10.5029 7.57568 10.4473 7.48486 10.4238 7.37939V7.2915V5.39307C10.4238 5.00635 10.5615 4.67529 10.8369 4.3999C11.1123 4.12451 11.4492 3.98682 11.8477 3.98682H14.2031V1.13916Z" fill="#E6E9EB"/>
</g>
<defs>
<clipPath id="clip0_30_3078">
<rect width="18" height="18" fill="white" transform="matrix(1 0 0 -1 0 18.1899)"/>
</clipPath>
</defs>
</svg>
