<svg width="18" height="19" viewBox="0 0 18 19" fill="none" xmlns="http://www.w3.org/2000/svg">
<g clip-path="url(#clip0_30_3076)">
<path d="M13.2363 0.189941C13.8926 0.189941 14.5078 0.312988 15.082 0.559082C15.668 0.816895 16.1748 1.15967 16.6025 1.5874C17.0303 2.01514 17.373 2.52197 17.6309 3.10791C17.877 3.68213 18 4.29736 18 4.95361V13.4263C18 14.0825 17.877 14.6978 17.6309 15.272C17.373 15.8579 17.0303 16.3647 16.6025 16.7925C16.1748 17.2202 15.668 17.563 15.082 17.8208C14.5078 18.0669 13.8926 18.1899 13.2363 18.1899H4.76367C4.10742 18.1899 3.49219 18.0669 2.91797 17.8208C2.33203 17.563 1.8252 17.2202 1.39746 16.7925C0.969727 16.3647 0.626953 15.8579 0.369141 15.272C0.123047 14.6978 0 14.0825 0 13.4263V4.95361C0 4.29736 0.123047 3.68213 0.369141 3.10791C0.626953 2.52197 0.969727 2.01514 1.39746 1.5874C1.8252 1.15967 2.33203 0.816895 2.91797 0.559082C3.49219 0.312988 4.10742 0.189941 4.76367 0.189941H13.2363ZM13.2363 1.24463H4.76367C4.24805 1.24463 3.76758 1.34424 3.32227 1.54346C2.87695 1.73096 2.48438 1.99463 2.14453 2.33447C1.80469 2.67432 1.54102 3.06689 1.35352 3.51221C1.1543 3.95752 1.05469 4.43799 1.05469 4.95361V13.4263C1.05469 13.9419 1.1543 14.4224 1.35352 14.8677C1.54102 15.313 1.80469 15.7056 2.14453 16.0454C2.48438 16.3853 2.87695 16.6489 3.32227 16.8364C3.76758 17.0356 4.24805 17.1353 4.76367 17.1353H13.2363C13.752 17.1353 14.2324 17.0356 14.6777 16.8364C15.123 16.6489 15.5156 16.3853 15.8555 16.0454C16.1953 15.7056 16.459 15.313 16.6465 14.8677C16.8457 14.4224 16.9453 13.9419 16.9453 13.4263V4.95361C16.9453 4.43799 16.8457 3.95752 16.6465 3.51221C16.459 3.06689 16.1953 2.67432 15.8555 2.33447C15.5156 1.99463 15.123 1.73096 14.6777 1.54346C14.2324 1.34424 13.752 1.24463 13.2363 1.24463ZM9 5.48096C9.51562 5.48096 9.99609 5.58057 10.4414 5.77979C10.8867 5.96729 11.2793 6.23096 11.6191 6.5708C11.959 6.91064 12.2227 7.30322 12.4102 7.74854C12.6094 8.19385 12.709 8.67432 12.709 9.18994C12.709 9.70557 12.6094 10.186 12.4102 10.6313C12.2227 11.0767 11.959 11.4692 11.6191 11.8091C11.2793 12.1489 10.8867 12.4126 10.4414 12.6001C9.99609 12.7993 9.51562 12.8989 9 12.8989C8.48438 12.8989 8.00391 12.7993 7.55859 12.6001C7.11328 12.4126 6.7207 12.1489 6.38086 11.8091C6.04102 11.4692 5.77734 11.0767 5.58984 10.6313C5.39062 10.186 5.29102 9.70557 5.29102 9.18994V8.979C5.32617 8.49854 5.44336 8.0415 5.64258 7.60791C5.8418 7.18604 6.1084 6.81689 6.44238 6.50049C6.77637 6.18408 7.16016 5.93799 7.59375 5.76221C8.03906 5.57471 8.50781 5.48096 9 5.48096ZM9 6.53564C8.27344 6.53564 7.64941 6.79639 7.12793 7.31787C6.60645 7.83936 6.3457 8.46338 6.3457 9.18994C6.3457 9.9165 6.60645 10.5405 7.12793 11.062C7.64941 11.5835 8.27344 11.8442 9 11.8442C9.72656 11.8442 10.3506 11.5835 10.8721 11.062C11.3936 10.5405 11.6543 9.9165 11.6543 9.18994C11.6543 8.46338 11.3936 7.83936 10.8721 7.31787C10.3506 6.79639 9.72656 6.53564 9 6.53564ZM13.7637 3.89893C13.916 3.89893 14.042 3.94873 14.1416 4.04834C14.2412 4.14795 14.291 4.27393 14.291 4.42627V4.44385C14.291 4.58447 14.2412 4.70752 14.1416 4.81299C14.042 4.91846 13.916 4.97119 13.7637 4.97119C13.623 4.97119 13.5 4.91846 13.3945 4.81299C13.2891 4.70752 13.2363 4.58447 13.2363 4.44385V4.42627C13.2363 4.27393 13.2891 4.14795 13.3945 4.04834C13.5 3.94873 13.623 3.89893 13.7637 3.89893Z" fill="#E6E9EB"/>
</g>
<defs>
<clipPath id="clip0_30_3076">
<rect width="18" height="18" fill="white" transform="matrix(1 0 0 -1 0 18.1899)"/>
</clipPath>
</defs>
</svg>
