<svg width="46" height="46" viewBox="0 0 46 46" fill="none" xmlns="http://www.w3.org/2000/svg">
<rect x="0.5" y="0.5" width="45" height="45" rx="14.5" stroke="#8DF7FF"/>
<path d="M23.9289 16.4621C24.6098 16.4621 25.1422 16.5718 25.5556 16.755C26.175 17.0293 26.5616 17.452 26.8332 18.0339C27.1007 18.6172 27.2238 19.3717 27.2238 20.2091C27.2238 20.3616 27.2853 20.5061 27.3923 20.6131C27.4993 20.7202 27.6478 20.7804 27.7977 20.7804C27.9462 20.7804 28.096 20.7202 28.203 20.6131C28.31 20.5061 28.3716 20.3576 28.3716 20.2091C28.3716 19.65 28.4251 19.1282 28.5401 18.6707C28.7154 17.9818 29.0177 17.448 29.4926 17.0788C29.9675 16.7096 30.6444 16.4661 31.6651 16.4621C31.819 16.4621 31.9648 16.4005 32.0718 16.2935C32.1788 16.1878 32.239 16.0394 32.239 15.8909C32.239 15.7424 32.1788 15.5939 32.0718 15.4868C31.9648 15.3798 31.8149 15.3196 31.6651 15.3196C30.9842 15.3196 30.4531 15.2086 30.0397 15.0253C29.4204 14.7511 29.0338 14.3283 28.7622 13.7464C28.4933 13.1632 28.3716 12.4087 28.3716 11.5712C28.3716 11.4187 28.31 11.2742 28.203 11.1672C28.096 11.0615 27.9462 11 27.7977 11C27.6478 11 27.4993 11.0615 27.3923 11.1672C27.2853 11.2742 27.2238 11.4227 27.2238 11.5712C27.2238 12.1317 27.1703 12.6535 27.0552 13.1096C26.8786 13.7999 26.5763 14.3323 26.1027 14.7016C25.6278 15.0708 24.9509 15.3156 23.9289 15.3196C23.7764 15.3196 23.6306 15.3798 23.5235 15.4868C23.4165 15.5938 23.355 15.7423 23.355 15.8908C23.355 16.0393 23.4165 16.1878 23.5235 16.2935C23.6306 16.4005 23.7804 16.4621 23.9289 16.4621ZM27.7977 14.3819C28.0345 14.8474 28.3555 15.2661 28.781 15.6006C28.9187 15.7076 29.0646 15.8026 29.2211 15.8908C28.5816 16.2561 28.1081 16.7898 27.7977 17.4025C27.561 16.9383 27.2386 16.5183 26.8145 16.1838C26.6767 16.0768 26.5309 15.9818 26.3744 15.8935C27.0138 15.5283 27.4874 14.9959 27.7977 14.3819Z" fill="#8DF7FF"/>
<path d="M33.3642 20.9023C32.2699 20.9023 31.387 21.7866 31.387 22.8715C31.387 23.9605 32.2699 24.8407 33.3642 24.8407C34.4585 24.8407 35.3427 23.9578 35.3427 22.8715C35.3427 21.7826 34.4585 20.9023 33.3642 20.9023ZM33.9501 23.4588C33.7976 23.6113 33.5943 23.7022 33.3642 23.7022C33.1355 23.7022 32.9321 23.6113 32.7796 23.4588C32.6258 23.3063 32.5348 23.1043 32.5348 22.8715C32.5348 22.6428 32.6258 22.4381 32.7796 22.2856C32.9321 22.1331 33.1355 22.0421 33.3642 22.0421C33.5943 22.0421 33.7976 22.1331 33.9501 22.2856C34.1026 22.4381 34.1949 22.6401 34.1949 22.8715C34.1949 23.1003 34.1026 23.3063 33.9501 23.4588Z" fill="#8DF7FF"/>
<path d="M29.4967 29.4677C29.3468 29.362 29.1555 29.2657 28.9 29.263H28.789C28.3823 29.3152 27.977 29.3392 27.5797 29.3392C22.6513 29.3392 18.3773 25.6591 17.766 20.6437C17.7192 20.2705 17.7045 19.8932 17.7045 19.5387C17.7045 19.029 17.7392 18.5635 17.7767 18.2331C17.7954 18.0645 17.8115 17.9321 17.8262 17.8398C17.8342 17.7943 17.8382 17.7595 17.8422 17.7368V17.71L17.8463 17.7073C17.9145 17.3221 18.0148 16.8993 18.1593 16.4458C18.2396 16.1877 18.3278 15.9469 18.4202 15.7221C18.4429 15.6659 18.4576 15.6004 18.4616 15.5362V15.4706C18.4616 15.3917 18.4576 15.2699 18.4121 15.1175C18.3666 14.965 18.2743 14.7817 18.1018 14.6252C17.8877 14.4352 17.6162 14.3442 17.3526 14.3442C17.1988 14.3442 17.0463 14.3817 16.9005 14.4432C15.9894 14.7054 14.4711 15.2887 13.0556 16.6144C12.9593 16.7054 12.3319 17.2953 11.7392 18.1595C9.91056 20.8189 9.65771 23.7167 9.65771 25.1721C9.65771 25.7581 9.69918 26.1126 9.69918 26.1313C9.72594 26.3454 9.94533 27.948 10.859 29.834C11.3138 30.7745 11.9493 31.7872 12.8215 32.7209C13.6937 33.6533 14.8121 34.5108 16.2234 35.1235C17.719 35.779 19.1692 35.9997 20.4508 35.9997C21.5718 35.9997 22.5671 35.8285 23.3591 35.6305C24.151 35.4326 24.7437 35.1998 25.05 35.078C26.7985 34.3958 27.985 33.4326 28.7383 32.5912C29.1183 32.1724 29.3898 31.7791 29.5771 31.4715C29.6681 31.315 29.7417 31.1785 29.7952 31.0675C29.8487 30.9538 29.8835 30.8735 29.9102 30.7785C29.9477 30.6407 29.9637 30.5083 29.9637 30.3932C29.9637 30.1083 29.8714 29.921 29.8406 29.8635C29.7524 29.7003 29.6386 29.5745 29.4888 29.4635L29.4967 29.4677ZM27.5944 32.1378C26.9402 32.7853 25.9877 33.4863 24.6339 34.016C24.3316 34.1338 23.7952 34.3398 23.0754 34.5217C22.357 34.705 21.4581 34.8575 20.4508 34.8575C19.3029 34.8575 18.0174 34.6595 16.6823 34.0763C15.4234 33.5278 14.4402 32.7746 13.6603 31.9399C12.4884 30.6904 11.7847 29.259 11.3754 28.1046C10.9661 26.9541 10.847 26.0859 10.8403 25.995C10.8403 25.9722 10.8055 25.6712 10.8055 25.1722C10.8055 23.8465 11.0503 21.1723 12.677 18.8113C13.1934 18.0582 13.7713 17.5123 13.8315 17.4521C15.0636 16.2936 16.4027 15.7799 17.2147 15.5445C17.2334 15.5405 17.2481 15.5284 17.2642 15.5204C17.1919 15.7037 17.1224 15.8977 17.0568 16.1037C16.8963 16.6107 16.7853 17.0829 16.709 17.5123C16.709 17.5364 16.5525 18.4153 16.5525 19.543C16.5525 19.935 16.5712 20.3577 16.6247 20.7845C17.3097 26.379 22.0692 30.4845 27.5795 30.4845C27.9888 30.4845 28.4062 30.459 28.8223 30.4122L28.8156 30.4617C28.8156 30.4617 28.7915 30.5273 28.75 30.6075C28.6082 30.8965 28.2524 31.4944 27.5982 32.1379L27.5944 32.1378Z" fill="#8DF7FF"/>
</svg>
