<svg width="21" height="21" viewBox="0 0 21 21" fill="none" xmlns="http://www.w3.org/2000/svg">
<path d="M10.5 6.5V19.5M1.5 7.5C1.5 7.23478 1.60536 6.98043 1.79289 6.79289C1.98043 6.60536 2.23478 6.5 2.5 6.5H18.5C18.7652 6.5 19.0196 6.60536 19.2071 6.79289C19.3946 6.98043 19.5 7.23478 19.5 7.5V9.5C19.5 9.76522 19.3946 10.0196 19.2071 10.2071C19.0196 10.3946 18.7652 10.5 18.5 10.5H2.5C2.23478 10.5 1.98043 10.3946 1.79289 10.2071C1.60536 10.0196 1.5 9.76522 1.5 9.5V7.5Z" stroke="white" stroke-width="1.5" stroke-linecap="round" stroke-linejoin="round"/>
<path d="M17.5 10.5004V17.5004C17.5 18.0309 17.2893 18.5396 16.9142 18.9146C16.5391 19.2897 16.0304 19.5004 15.5 19.5004H5.5C4.96957 19.5004 4.46086 19.2897 4.08579 18.9146C3.71071 18.5396 3.5 18.0309 3.5 17.5004V10.5004M6 6.50044C5.33696 6.50044 4.70107 6.23705 4.23223 5.7682C3.76339 5.29936 3.5 4.66348 3.5 4.00044C3.5 3.3374 3.76339 2.70151 4.23223 2.23267C4.70107 1.76383 5.33696 1.50044 6 1.50044C6.96469 1.48363 7.91003 1.9517 8.71274 2.8436C9.51545 3.7355 10.1383 5.00984 10.5 6.50044C10.8617 5.00984 11.4846 3.7355 12.2873 2.8436C13.09 1.9517 14.0353 1.48363 15 1.50044C15.663 1.50044 16.2989 1.76383 16.7678 2.23267C17.2366 2.70151 17.5 3.3374 17.5 4.00044C17.5 4.66348 17.2366 5.29936 16.7678 5.7682C16.2989 6.23705 15.663 6.50044 15 6.50044" stroke="white" stroke-width="1.5" stroke-linecap="round" stroke-linejoin="round"/>
</svg>
