<svg width="18" height="19" viewBox="0 0 18 19" fill="none" xmlns="http://www.w3.org/2000/svg">
<g clip-path="url(#clip0_30_3072)">
<path d="M15.3457 0.189941C16.084 0.189941 16.7109 0.447754 17.2266 0.963379C17.7422 1.479 18 2.10596 18 2.84424V15.5356C18 16.2739 17.7422 16.9009 17.2266 17.4165C16.7109 17.9321 16.084 18.1899 15.3457 18.1899H2.6543C1.91602 18.1899 1.28906 17.9321 0.773438 17.4165C0.257812 16.9009 0 16.2739 0 15.5356V2.84424C0 2.10596 0.257812 1.479 0.773438 0.963379C1.28906 0.447754 1.91602 0.189941 2.6543 0.189941H15.3457ZM15.3457 1.24463H2.6543C2.20898 1.24463 1.83105 1.3999 1.52051 1.71045C1.20996 2.021 1.05469 2.39893 1.05469 2.84424V15.5356C1.05469 15.981 1.20996 16.3589 1.52051 16.6694C1.83105 16.98 2.20898 17.1353 2.6543 17.1353H15.3457C15.791 17.1353 16.1689 16.98 16.4795 16.6694C16.79 16.3589 16.9453 15.981 16.9453 15.5356V2.84424C16.9453 2.39893 16.79 2.021 16.4795 1.71045C16.1689 1.3999 15.791 1.24463 15.3457 1.24463ZM4.76367 7.60791C4.91602 7.60791 5.04199 7.65771 5.1416 7.75732C5.24121 7.85693 5.29102 7.98291 5.29102 8.13525V13.4263C5.29102 13.5669 5.24121 13.6899 5.1416 13.7954C5.04199 13.9009 4.91602 13.9536 4.76367 13.9536C4.62305 13.9536 4.5 13.9009 4.39453 13.7954C4.28906 13.6899 4.23633 13.5669 4.23633 13.4263V8.13525C4.23633 7.98291 4.28906 7.85693 4.39453 7.75732C4.5 7.65771 4.62305 7.60791 4.76367 7.60791ZM11.1094 7.60791C11.8477 7.60791 12.4746 7.86572 12.9902 8.38135C13.5059 8.89697 13.7637 9.51807 13.7637 10.2446V13.4263C13.7637 13.5669 13.7109 13.6899 13.6055 13.7954C13.5 13.9009 13.377 13.9536 13.2363 13.9536C13.084 13.9536 12.958 13.9009 12.8584 13.7954C12.7588 13.6899 12.709 13.5669 12.709 13.4263V10.2446C12.709 9.81104 12.5537 9.43896 12.2432 9.12842C11.9326 8.81787 11.5547 8.6626 11.1094 8.6626C10.6758 8.6626 10.3037 8.81787 9.99316 9.12842C9.68262 9.43896 9.52734 9.81104 9.52734 10.2446V13.4263C9.52734 13.5669 9.47461 13.6899 9.36914 13.7954C9.26367 13.9009 9.14062 13.9536 9 13.9536C8.85938 13.9536 8.73633 13.9009 8.63086 13.7954C8.52539 13.6899 8.47266 13.5669 8.47266 13.4263V8.13525C8.47266 7.98291 8.52539 7.85693 8.63086 7.75732C8.73633 7.65771 8.85938 7.60791 9 7.60791C9.14062 7.60791 9.26367 7.65771 9.36914 7.75732C9.47461 7.85693 9.52734 7.98291 9.52734 8.13525L9.5625 8.11768C9.77344 7.95361 10.0137 7.82764 10.2832 7.73975C10.5527 7.65186 10.8281 7.60791 11.1094 7.60791ZM4.76367 4.42627C4.91602 4.42627 5.04199 4.479 5.1416 4.58447C5.24121 4.68994 5.29102 4.81299 5.29102 4.95361V4.97119C5.29102 5.11182 5.24121 5.23486 5.1416 5.34033C5.04199 5.4458 4.91602 5.49854 4.76367 5.49854C4.62305 5.49854 4.5 5.4458 4.39453 5.34033C4.28906 5.23486 4.23633 5.11182 4.23633 4.97119V4.95361C4.23633 4.81299 4.28906 4.68994 4.39453 4.58447C4.5 4.479 4.62305 4.42627 4.76367 4.42627Z" fill="#E6E9EB"/>
</g>
<defs>
<clipPath id="clip0_30_3072">
<rect width="18" height="18" fill="white" transform="matrix(1 0 0 -1 0 18.1899)"/>
</clipPath>
</defs>
</svg>
