<svg width="46" height="46" viewBox="0 0 46 46" fill="none" xmlns="http://www.w3.org/2000/svg">
<rect x="0.5" y="0.5" width="45" height="45" rx="14.5" stroke="#8DF7FF"/>
<path d="M15.4917 25.9309C15.4917 26.3059 15.1875 26.6101 14.8125 26.6101C14.4376 26.6101 14.1334 26.3059 14.1334 25.9309V25.6585C14.1334 25.2836 14.4376 24.9794 14.8125 24.9794C15.1875 24.9794 15.4917 25.2836 15.4917 25.6585V25.9309ZM18.1208 23.3663C17.9652 23.0267 18.1155 22.6253 18.4551 22.4696C18.7947 22.314 19.1962 22.4643 19.3518 22.8039C19.672 23.5079 20.1858 24.0862 20.8119 24.4886C21.4362 24.8901 22.1747 25.1156 22.9511 25.1156C23.7276 25.1156 24.466 24.8901 25.0903 24.4886C25.7165 24.0862 26.2303 23.507 26.5504 22.8039C26.706 22.4643 27.1075 22.3149 27.4471 22.4696C27.7867 22.6253 27.9362 23.0267 27.7814 23.3663C27.3499 24.3135 26.6618 25.0899 25.8226 25.6294C24.9807 26.1697 23.9884 26.4739 22.951 26.4739C21.9128 26.4739 20.9206 26.1697 20.0795 25.6294C19.2411 25.0899 18.5533 24.3135 18.1208 23.3663ZM19.9541 19.0862C19.9541 19.4611 19.6499 19.7653 19.2749 19.7653C18.9 19.7653 18.5957 19.4611 18.5957 19.0862V17.3776H15.4917V23.6804C15.4917 24.0553 15.1874 24.3595 14.8125 24.3595C14.4375 24.3595 14.1333 24.0553 14.1333 23.6804V16.6984C14.1333 16.3235 14.4375 16.0192 14.8125 16.0192H18.6082C18.6904 14.9536 19.16 13.9932 19.8746 13.2788C20.6634 12.4899 21.7529 12 22.9522 12C24.1478 12 25.2365 12.4908 26.0261 13.2788L26.0288 13.2814C26.7433 13.9977 27.2129 14.9572 27.2952 16.0194H31.0909C31.4658 16.0194 31.77 16.3236 31.77 16.6986V31.0462C31.77 31.7652 31.4764 32.4178 31.0042 32.8901C30.532 33.3623 29.8784 33.6559 29.1603 33.6559H16.7432C16.0242 33.6559 15.3715 33.3623 14.8993 32.8901C14.4271 32.4178 14.1335 31.7643 14.1335 31.0462V27.9102C14.1335 27.5353 14.4377 27.231 14.8126 27.231C15.1876 27.231 15.4918 27.5353 15.4918 27.9102V31.0462C15.4918 31.3902 15.6333 31.7033 15.8597 31.9288C16.087 32.1561 16.4 32.2967 16.7423 32.2967H29.1595C29.5035 32.2967 29.8165 32.1552 30.042 31.9288C30.2693 31.7015 30.4099 31.3884 30.4099 31.0462V17.3778H27.3058V19.0863C27.3058 19.4613 27.0016 19.7655 26.6267 19.7655C26.2517 19.7655 25.9475 19.4613 25.9475 19.0863V17.3778H19.9517V19.0863L19.9541 19.0862ZM25.9304 16.0192C25.8526 15.3277 25.5377 14.706 25.0708 14.2399L25.0682 14.2373C24.5261 13.6952 23.777 13.3582 22.9519 13.3582C22.1277 13.3582 21.3787 13.696 20.8348 14.239C20.3661 14.7077 20.0504 15.3294 19.9725 16.0192L25.9304 16.0192Z" fill="#8DF7FF"/>
</svg>
