<svg width="46" height="46" viewBox="0 0 46 46" fill="none" xmlns="http://www.w3.org/2000/svg">
<rect x="0.5" y="0.5" width="45" height="45" rx="14.5" stroke="#8DF7FF"/>
<path d="M22.0646 35.8732H11.8484C10.8463 35.8732 10.0267 35.0537 10.0267 34.0475V19.7294C10.0267 18.7232 10.8463 17.9077 11.8484 17.9077H22.0646C23.0708 17.9077 23.8863 18.7273 23.8863 19.7294V34.0475C23.8863 35.0537 23.0708 35.8732 22.0646 35.8732ZM11.8484 18.695C11.2764 18.695 10.8138 19.1575 10.8138 19.7296V34.0477C10.8138 34.6197 11.2763 35.0823 11.8484 35.0823H22.0646C22.6367 35.0823 23.0992 34.6157 23.0992 34.0477V19.7296C23.0992 19.1575 22.6367 18.695 22.0646 18.695H11.8484Z" fill="#7CE7F1"/>
<path d="M16.9567 33.326C14.3196 33.326 12.1774 30.4414 12.1774 26.8913C12.1774 23.3411 14.3196 20.4565 16.9567 20.4565C19.5939 20.4565 21.7361 23.3411 21.7361 26.8913C21.7361 30.4414 19.5939 33.326 16.9567 33.326ZM16.9567 21.2436C14.7536 21.2436 12.9644 23.7793 12.9644 26.8913C12.9644 30.0032 14.7536 32.5389 16.9567 32.5389C19.1598 32.5389 20.949 30.0032 20.949 26.8913C20.949 23.7793 19.1598 21.2436 16.9567 21.2436Z" fill="#7CE7F1"/>
<path d="M20.2186 18.6955C19.9995 18.6955 19.8251 18.5211 19.8251 18.302V15.4415C19.8251 15.401 19.7926 15.3726 19.7561 15.3726H14.1611C14.1205 15.3726 14.0921 15.405 14.0921 15.4415V18.302C14.0921 18.5211 13.9177 18.6955 13.6986 18.6955C13.4795 18.6955 13.3051 18.5211 13.3051 18.302V15.4415C13.3051 14.9709 13.6905 14.5854 14.1611 14.5854H19.7561C20.2308 14.5854 20.6122 14.9709 20.6122 15.4415V18.302C20.6122 18.517 20.4336 18.6955 20.2186 18.6955Z" fill="#7CE7F1"/>
<path d="M18.62 15.3679C18.4009 15.3679 18.2264 15.1935 18.2264 14.9744V12.183C18.2264 11.4852 17.6584 10.9131 16.9565 10.9131C16.2587 10.9131 15.6866 11.4811 15.6866 12.183V14.9785C15.6866 15.1976 15.5122 15.3721 15.2931 15.3721C15.074 15.3721 14.8995 15.1976 14.8995 14.9785V12.183C14.8995 11.051 15.8205 10.126 16.9566 10.126C18.0926 10.126 19.0136 11.047 19.0136 12.183V14.9785C19.0136 15.1936 18.835 15.3679 18.62 15.3679Z" fill="#7CE7F1"/>
<path d="M33.4817 35.8736H27.3147C26.5519 35.8736 25.9312 35.2528 25.9312 34.4901V29.2238C25.9312 28.4611 26.5519 27.8403 27.3147 27.8403H33.4817C34.2444 27.8403 34.8652 28.4611 34.8652 29.2238V34.4862C34.8652 35.253 34.2444 35.8736 33.4817 35.8736ZM27.3147 28.6274C26.986 28.6274 26.7182 28.8952 26.7182 29.2238V34.4862C26.7182 34.8148 26.986 35.0826 27.3147 35.0826H33.4817C33.8103 35.0826 34.0781 34.8148 34.0781 34.4862V29.2238C34.0781 28.8952 33.8103 28.6274 33.4817 28.6274H27.3147Z" fill="#7CE7F1"/>
<path d="M34.4716 32.2505H26.3247C26.1056 32.2505 25.9312 32.076 25.9312 31.8569C25.9312 31.6378 26.1056 31.4634 26.3247 31.4634H34.4758C34.6949 31.4634 34.8693 31.6378 34.8693 31.8569C34.8653 32.076 34.6907 32.2505 34.4716 32.2505Z" fill="#7CE7F1"/>
<path d="M33.2464 28.6273C33.0273 28.6273 32.8528 28.4528 32.8528 28.2337V26.1767C32.8528 26.0469 32.7473 25.9373 32.6175 25.9373H28.183C28.0491 25.9373 27.9436 26.0428 27.9436 26.1767V28.2337C27.9436 28.4528 27.7691 28.6273 27.55 28.6273C27.331 28.6273 27.1565 28.4528 27.1565 28.2337V26.1767C27.1565 25.6128 27.619 25.1543 28.183 25.1543H32.6175C33.1815 25.1543 33.6399 25.6128 33.6399 26.1767V28.2337C33.6399 28.4488 33.4654 28.6273 33.2464 28.6273Z" fill="#7CE7F1"/>
<path d="M29.6638 25.8278C29.5015 25.8278 29.3474 25.7264 29.2906 25.5641L28.4832 23.2149C27.6068 20.6751 27.3837 17.9284 27.83 15.2791L28.0207 14.1471C28.0572 13.9321 28.26 13.786 28.4751 13.8266C28.6901 13.8631 28.8321 14.066 28.7956 14.281L28.6049 15.413C28.1789 17.9325 28.3899 20.5455 29.2257 22.9593L30.033 25.3085C30.102 25.5154 29.9965 25.7385 29.7896 25.8075C29.749 25.8197 29.7044 25.8278 29.6638 25.8278Z" fill="#7CE7F1"/>
<path d="M32.6133 25.9413C32.5524 25.9413 32.4916 25.9292 32.4348 25.8967C32.24 25.7993 32.1629 25.56 32.2644 25.3693L34.7393 20.5331C35.3397 19.3605 35.3641 18.0013 34.8001 16.8085C34.2403 15.6156 33.1772 14.7677 31.8911 14.4837C30.9133 14.2686 29.8828 14.2686 28.9092 14.4837C27.623 14.7677 26.56 15.6156 26.0002 16.8085C25.4403 18.0013 25.4605 19.3605 26.061 20.5331L28.5359 25.3693C28.6333 25.564 28.5603 25.7993 28.3655 25.8967C28.1708 25.9941 27.9355 25.917 27.8381 25.7263L25.3632 20.8901C24.6491 19.4984 24.6247 17.8879 25.2901 16.4717C25.9555 15.0555 27.2133 14.0495 28.7429 13.7127C29.8302 13.4734 30.9784 13.4734 32.0658 13.7127C33.5913 14.0495 34.853 15.0557 35.5185 16.4717C36.1841 17.8876 36.1596 19.4983 35.4455 20.8901L32.9706 25.7263C32.8935 25.8602 32.7556 25.9413 32.6136 25.9413L32.6133 25.9413Z" fill="#7CE7F1"/>
<path d="M31.1325 25.8281C31.0919 25.8281 31.0473 25.82 31.0027 25.8078C30.7957 25.7388 30.6862 25.5116 30.7592 25.3088L31.5666 22.9596C32.3983 20.5415 32.6134 17.9328 32.1874 15.4133L31.9967 14.2813C31.9602 14.0663 32.1062 13.8634 32.3172 13.8269C32.5322 13.7904 32.7351 13.9364 32.7716 14.1474L32.9623 15.2794C33.4127 17.9287 33.1855 20.6755 32.3132 23.2152L31.5058 25.5644C31.449 25.7267 31.2988 25.8281 31.1325 25.8281Z" fill="#7CE7F1"/>
</svg>
