<svg width="46" height="46" viewBox="0 0 46 46" fill="none" xmlns="http://www.w3.org/2000/svg">
<rect x="0.5" y="0.5" width="45" height="45" rx="14.5" stroke="#8DF7FF"/>
<path d="M14.0765 11C13.8889 11.0011 13.7098 11.0783 13.5777 11.2135C13.4457 11.3497 13.3724 11.5342 13.3734 11.7262V12.2325H12.9616C11.7567 12.2325 10.8231 13.3684 11.0284 14.5836L12.2428 21.7861C12.6588 24.2532 14.658 26.1055 17.0574 26.3213V30.2622C17.0574 32.8708 19.1362 35 21.6845 35C24.2327 35 26.3169 32.8698 26.3169 30.2622V22.0684C26.3169 20.7395 27.3522 19.6786 28.6514 19.6786H28.7415C30.0397 19.6786 31.076 20.7395 31.076 22.0684V24.455C29.6437 24.7886 28.5634 26.1079 28.5634 27.6707C28.5634 29.4813 30.0146 30.9625 31.7844 30.9625C33.5542 30.9625 35 29.4823 35 27.6707C35 26.1069 33.9218 24.7853 32.4874 24.4539V22.0684C32.4874 19.9586 30.8025 18.2337 28.7415 18.2337H28.6513C26.5903 18.2337 24.9054 19.9585 24.9054 22.0684V30.2622C24.9054 32.0888 23.4699 33.554 21.6844 33.554C19.8989 33.554 18.4688 32.0899 18.4688 30.2622V26.2935C20.7604 25.9803 22.6423 24.1708 23.0447 21.7864L24.258 14.5839C24.4634 13.3686 23.5298 12.2327 22.3248 12.2327H21.913V11.7264C21.9141 11.5344 21.8407 11.3499 21.7087 11.2137C21.5767 11.0785 21.3975 11.0013 21.2099 11.0002C21.0224 11.0002 20.8411 11.0764 20.708 11.2126C20.575 11.3488 20.5006 11.5333 20.5016 11.7264V14.1902C20.5027 14.3822 20.5771 14.5657 20.7101 14.7008C20.8432 14.836 21.0234 14.911 21.2099 14.91C21.5976 14.9089 21.912 14.5871 21.913 14.1902V13.6775H22.3248C22.6821 13.6775 22.9273 13.9779 22.8665 14.3382L21.6532 21.5408C21.3252 23.4833 19.6854 24.896 17.7595 24.896H17.5248C15.5989 24.896 13.9602 23.4833 13.6321 21.5408L12.4177 14.3382C12.357 13.9789 12.6021 13.6775 12.9594 13.6775H13.3712V14.1902H13.3733C13.3744 14.5871 13.6887 14.9089 14.0764 14.91C14.2639 14.911 14.4431 14.836 14.5762 14.7008C14.7093 14.5657 14.7847 14.3822 14.7847 14.1902V11.7264C14.7858 11.5333 14.7114 11.3489 14.5783 11.2126C14.4452 11.0764 14.2651 11 14.0765 11ZM31.7844 25.8194C32.7913 25.8194 33.5877 26.641 33.5877 27.6707C33.5877 28.7004 32.7903 29.521 31.7844 29.521C30.7775 29.521 29.9759 28.7004 29.9759 27.6707C29.9759 26.641 30.7785 25.8194 31.7844 25.8194Z" fill="#8DF7FF"/>
</svg>
