<svg width="84" height="85" viewBox="0 0 84 85" fill="none" xmlns="http://www.w3.org/2000/svg">
<g filter="url(#filter0_d_180_1759)">
<rect x="11" y="9" width="62" height="63" rx="11" fill="url(#paint0_linear_180_1759)"/>
</g>
<path d="M31.839 39.9949L42.336 26.5204C43.1565 25.4659 44.6955 26.1214 44.6955 27.5254V37.9549C44.6955 38.7949 45.2985 39.4774 46.044 39.4774H51.15C52.3095 39.4774 52.9275 41.0224 52.161 42.0064L41.664 55.4809C40.8435 56.5339 39.3045 55.8784 39.3045 54.4744V44.0449C39.3045 43.2049 38.7 42.5224 37.956 42.5224H32.85C31.6905 42.5224 31.0725 40.9789 31.839 39.9949Z" stroke="white" stroke-width="1.5" stroke-linecap="round" stroke-linejoin="round"/>
<defs>
<filter id="filter0_d_180_1759" x="0" y="0" width="84" height="85" filterUnits="userSpaceOnUse" color-interpolation-filters="sRGB">
<feFlood flood-opacity="0" result="BackgroundImageFix"/>
<feColorMatrix in="SourceAlpha" type="matrix" values="0 0 0 0 0 0 0 0 0 0 0 0 0 0 0 0 0 0 127 0" result="hardAlpha"/>
<feOffset dy="2"/>
<feGaussianBlur stdDeviation="5.5"/>
<feComposite in2="hardAlpha" operator="out"/>
<feColorMatrix type="matrix" values="0 0 0 0 0 0 0 0 0 0 0 0 0 0 0 0 0 0 0.15 0"/>
<feBlend mode="normal" in2="BackgroundImageFix" result="effect1_dropShadow_180_1759"/>
<feBlend mode="normal" in="SourceGraphic" in2="effect1_dropShadow_180_1759" result="shape"/>
</filter>
<linearGradient id="paint0_linear_180_1759" x1="42" y1="9" x2="42" y2="72" gradientUnits="userSpaceOnUse">
<stop stop-color="#0194A6"/>
<stop offset="1" stop-color="#00416B"/>
</linearGradient>
</defs>
</svg>
