<svg width="84" height="85" viewBox="0 0 84 85" fill="none" xmlns="http://www.w3.org/2000/svg">
<g filter="url(#filter0_d_180_1739)">
<rect x="11" y="9" width="62" height="63" rx="11" fill="url(#paint0_linear_180_1739)"/>
</g>
<path d="M54.75 35.333C54.7495 34.8362 54.6183 34.3482 54.3697 33.918C54.121 33.4878 53.7636 33.1306 53.3333 32.8822L43.4167 27.2155C42.9859 26.9669 42.4974 26.8359 42 26.8359C41.5026 26.8359 41.0141 26.9669 40.5833 27.2155L30.6667 32.8822C30.2364 33.1306 29.879 33.4878 29.6303 33.918C29.3817 34.3482 29.2505 34.8362 29.25 35.333V46.6664C29.2505 47.1632 29.3817 47.6512 29.6303 48.0814C29.879 48.5116 30.2364 48.8688 30.6667 49.1172L40.5833 54.7839C41.0141 55.0325 41.5026 55.1635 42 55.1635C42.4974 55.1635 42.9859 55.0325 43.4167 54.7839L53.3333 49.1172C53.7636 48.8688 54.121 48.5116 54.3697 48.0814C54.6183 47.6512 54.7495 47.1632 54.75 46.6664V35.333Z" stroke="white" stroke-width="2" stroke-linecap="round" stroke-linejoin="round"/>
<path d="M29.675 33.917L42 41.0003L54.3251 33.917" stroke="white" stroke-width="2" stroke-linecap="round" stroke-linejoin="round"/>
<path d="M42 55.1667V41" stroke="white" stroke-width="2" stroke-linecap="round" stroke-linejoin="round"/>
<defs>
<filter id="filter0_d_180_1739" x="0" y="0" width="84" height="85" filterUnits="userSpaceOnUse" color-interpolation-filters="sRGB">
<feFlood flood-opacity="0" result="BackgroundImageFix"/>
<feColorMatrix in="SourceAlpha" type="matrix" values="0 0 0 0 0 0 0 0 0 0 0 0 0 0 0 0 0 0 127 0" result="hardAlpha"/>
<feOffset dy="2"/>
<feGaussianBlur stdDeviation="5.5"/>
<feComposite in2="hardAlpha" operator="out"/>
<feColorMatrix type="matrix" values="0 0 0 0 0 0 0 0 0 0 0 0 0 0 0 0 0 0 0.15 0"/>
<feBlend mode="normal" in2="BackgroundImageFix" result="effect1_dropShadow_180_1739"/>
<feBlend mode="normal" in="SourceGraphic" in2="effect1_dropShadow_180_1739" result="shape"/>
</filter>
<linearGradient id="paint0_linear_180_1739" x1="42" y1="9" x2="42" y2="72" gradientUnits="userSpaceOnUse">
<stop stop-color="#0194A6"/>
<stop offset="1" stop-color="#00416B"/>
</linearGradient>
</defs>
</svg>
