<svg width="46" height="46" viewBox="0 0 46 46" fill="none" xmlns="http://www.w3.org/2000/svg">
<rect x="0.5" y="0.5" width="45" height="45" rx="14.5" stroke="#8DF7FF"/>
<path fill-rule="evenodd" clip-rule="evenodd" d="M18 13.384C15.4734 13.384 13.4258 15.4316 13.4258 17.9577C13.4258 20.4827 15.4735 22.53 18 22.53V23.957C14.6856 23.957 12 21.2702 12 17.9577C12 14.6437 14.6858 11.957 18 11.957V13.384Z" fill="#8DF7FF"/>
<path fill-rule="evenodd" clip-rule="evenodd" d="M18 23.5094C13.2565 23.5094 9.41007 27.7384 9.41007 32.957H8C8 26.8818 12.4777 21.957 18 21.957L18 23.5094Z" fill="#8DF7FF"/>
<path fill-rule="evenodd" clip-rule="evenodd" d="M26.4993 13.3095C23.7185 13.3095 21.4652 15.3909 21.4652 17.9577C21.4652 20.5245 23.7187 22.6045 26.4993 22.6045C29.2801 22.6045 31.5348 20.5244 31.5348 17.9577C31.5348 15.3908 29.28 13.3095 26.4993 13.3095ZM20 17.9577C20 14.6442 22.9098 11.957 26.4993 11.957C30.0903 11.957 33 14.6443 33 17.9577C33 21.2711 30.0902 23.957 26.4993 23.957C22.9097 23.957 20 21.271 20 17.9577Z" fill="#8DF7FF"/>
<path fill-rule="evenodd" clip-rule="evenodd" d="M26.5 24.4242C21.4744 24.4242 17.4004 28.6922 17.4004 33.957H16C16 27.8822 20.7013 22.957 26.5 22.957C32.3 22.957 37 27.8822 37 33.957H35.6009C35.6009 28.6922 31.5269 24.4242 26.5 24.4242Z" fill="#8DF7FF"/>
</svg>
