<svg width="46" height="46" viewBox="0 0 46 46" fill="none" xmlns="http://www.w3.org/2000/svg">
<rect x="0.5" y="0.5" width="45" height="45" rx="14.5" stroke="#8DF7FF"/>
<path d="M33.6819 24.4696C33.1609 23.6992 32.0459 23.2661 30.9223 23.9274L24.534 27.7027L20.4315 25.4783C19.2166 24.8147 17.9307 24.66 16.6096 25.0196L15.6782 25.2667V24.3983C15.6782 24.1645 15.4956 23.9752 15.27 23.9752L12.4094 23.9741C12.1838 23.9741 12.0012 24.1634 12.0012 24.3972V32.9053C12.0012 33.1391 12.1838 33.3284 12.4094 33.3284H15.2689C15.4945 33.3284 15.6771 33.1391 15.6771 32.9053V31.9568L17.2261 31.841L23.5083 33.8617C23.7908 33.9552 24.0776 34.002 24.3591 34.002C25.0004 34.002 25.6191 33.7626 26.1347 33.3006L33.287 26.9736C34.1893 26.1731 34.1356 25.1389 33.6823 24.4697L33.6819 24.4696ZM14.8605 32.4821H12.8174V24.8213H14.8605V32.4821ZM32.756 26.3287L25.6026 32.6557C25.6016 32.6568 25.6016 32.6568 25.6005 32.6579C25.0709 33.1322 24.4167 33.2724 23.7539 33.0531L17.3945 31.0079C17.3548 30.9957 17.315 30.989 17.2731 30.989C17.2635 30.989 17.2538 30.989 17.243 30.9901L15.6768 31.1081V26.1404L16.8134 25.8376C17.9488 25.5292 19.0069 25.6561 20.0501 26.2261L24.3319 28.5485C24.333 28.5496 24.334 28.5496 24.3351 28.5507L24.9216 28.8703C25.1537 28.9961 25.3245 29.2076 25.4018 29.4681C25.4792 29.7253 25.4555 29.9959 25.3341 30.233C25.086 30.724 24.4952 30.9166 24.0204 30.6616L18.8715 27.8572C18.6717 27.7481 18.4247 27.8282 18.3194 28.0353C18.2141 28.2424 18.2915 28.4984 18.4913 28.6075L23.642 31.4131C23.9052 31.5545 24.1867 31.6213 24.4649 31.6213C25.1116 31.6213 25.7378 31.2595 26.0558 30.6282C26.2782 30.1929 26.3222 29.6919 26.1804 29.2188C26.0472 28.7746 25.7647 28.4083 25.3834 28.1745L31.3229 24.6643C32.0211 24.2535 32.7 24.5006 33.0094 24.9571C33.3166 25.4035 33.22 25.9168 32.756 26.3287ZM20.4851 20.4604C21.7807 21.6204 23.1202 22.8206 23.7304 24.2068C23.797 24.3571 23.9421 24.454 24.1021 24.454C24.2622 24.454 24.4072 24.3571 24.4738 24.2068C25.084 22.8207 26.4235 21.6206 27.7202 20.4604C29.3552 18.9963 30.9009 17.6125 30.9837 15.8814C31.0298 14.9172 30.6184 13.9731 29.7257 12.9956C28.9437 12.1384 27.7223 11.8022 26.5344 12.1195C25.4902 12.3989 24.6287 13.1381 24.1023 14.1735C23.5759 13.1381 22.7144 12.3989 21.6702 12.1195C20.4832 11.8022 19.2608 12.1384 18.4788 12.9956C17.5851 13.9731 17.1737 14.9172 17.2209 15.8825C17.3058 17.6126 18.8505 18.9954 20.4855 20.4604H20.4851ZM19.0736 13.5768C19.5044 13.1047 20.1242 12.8476 20.7838 12.8476C21.0083 12.8476 21.2382 12.8776 21.467 12.9388C22.5659 13.2327 23.3834 14.149 23.7078 15.4527C23.754 15.6398 23.9173 15.77 24.1031 15.77C24.289 15.77 24.4523 15.6387 24.4985 15.4527C24.8229 14.149 25.6393 13.2327 26.7393 12.9388C27.6384 12.6995 28.5547 12.9433 29.1326 13.5768C29.8642 14.3773 30.2036 15.1176 30.1682 15.8391C30.1016 17.2084 28.6858 18.4776 27.1861 19.8204C26.0367 20.8491 24.855 21.9067 24.103 23.1459C23.3511 21.9067 22.1684 20.8491 21.02 19.8204C19.5204 18.4777 18.1036 17.2096 18.0379 15.8391C18.0024 15.1176 18.341 14.3784 19.0736 13.5768Z" fill="#8DF7FF"/>
</svg>
