<svg width="20" height="20" viewBox="0 0 20 20" fill="none" xmlns="http://www.w3.org/2000/svg">
<path fill-rule="evenodd" clip-rule="evenodd" d="M9.9999 19.5994C15.3018 19.5994 19.5999 15.3013 19.5999 9.99942C19.5999 4.69748 15.3018 0.399414 9.9999 0.399414C4.69796 0.399414 0.399902 4.69748 0.399902 9.99942C0.399902 15.3013 4.69796 19.5994 9.9999 19.5994ZM12.3831 7.77863C12.6223 7.53459 13.0102 7.53459 13.2495 7.77863C13.4887 8.02268 13.4887 8.41837 13.2495 8.66241L9.78374 12.1976L8.91731 13.0813L6.75122 10.8719C6.51196 10.6278 6.51196 10.2321 6.75122 9.98808C6.99048 9.74403 7.3784 9.74403 7.61765 9.98808L8.91731 11.3138L12.3831 7.77863Z" fill="url(#paint0_linear_180_1688)"/>
<defs>
<linearGradient id="paint0_linear_180_1688" x1="9.99992" y1="0.399414" x2="9.99992" y2="19.5994" gradientUnits="userSpaceOnUse">
<stop stop-color="#00416B"/>
<stop offset="1" stop-color="#00ADB8"/>
</linearGradient>
</defs>
</svg>
