<svg width="72" height="71" viewBox="0 0 72 71" fill="none" xmlns="http://www.w3.org/2000/svg">
<circle cx="35.5784" cy="35.5" r="35" fill="white" stroke="#00416B"/>
<path d="M30.4265 24.4047C30.4265 24.0912 30.6799 23.8378 30.9935 23.8378H37.0476C37.3611 23.8378 37.6145 24.0912 37.6145 24.4047C37.6145 24.7182 37.3611 24.9716 37.0476 24.9716H30.9935C30.6799 24.9716 30.4265 24.7182 30.4265 24.4047ZM30.9935 27.9995H37.0476C37.3611 27.9995 37.6145 27.7461 37.6145 27.4326C37.6145 27.1191 37.3611 26.8657 37.0476 26.8657H30.9935C30.6799 26.8657 30.4265 27.1191 30.4265 27.4326C30.4265 27.7461 30.6799 27.9995 30.9935 27.9995ZM30.9935 31.0274H37.0476C37.3611 31.0274 37.6145 30.774 37.6145 30.4605C37.6145 30.147 37.3611 29.8936 37.0476 29.8936H30.9935C30.6799 29.8936 30.4265 30.147 30.4265 30.4605C30.4265 30.774 30.6799 31.0274 30.9935 31.0274ZM30.9935 34.0535H37.0476C37.3611 34.0535 37.6145 33.8001 37.6145 33.4866C37.6145 33.173 37.3611 32.9197 37.0476 32.9197H30.9935C30.6799 32.9197 30.4265 33.173 30.4265 33.4866C30.4265 33.8001 30.6799 34.0535 30.9935 34.0535ZM36.8595 38.7841C36.8595 40.3482 35.5871 41.6224 34.0212 41.6224C32.4571 41.6224 31.1829 40.35 31.1829 38.7841C31.1829 37.22 32.4553 35.9458 34.0212 35.9458C35.5853 35.9458 36.8595 37.2182 36.8595 38.7841ZM35.7238 38.7841C35.7238 37.8453 34.96 37.0815 34.0212 37.0815C33.0824 37.0815 32.3186 37.8453 32.3186 38.7841C32.3186 39.7229 33.0824 40.4867 34.0212 40.4867C34.96 40.4867 35.7238 39.7229 35.7238 38.7841ZM61.0751 42.5667C61.0751 47.4705 57.0866 51.4591 52.1828 51.4591C51.0543 51.4591 49.9351 51.233 48.8978 50.821C48.577 52.4763 47.1205 53.7304 45.3723 53.7304H45.1262C44.8619 55.0247 43.7171 56 42.3462 56C40.9754 56 39.8288 55.0229 39.5663 53.7304H28.4792C28.2148 55.0247 27.0701 56 25.6992 56C24.3284 56 23.1818 55.0229 22.9193 53.7304H22.6732C20.6916 53.7304 19.0784 52.1172 19.0784 50.1356V27.4331C19.0784 25.4516 20.6916 23.8383 22.6732 23.8383H26.6453V19.1077C26.6453 16.2913 28.9368 14 31.753 14H36.2939C39.1104 14 41.4016 16.2914 41.4016 19.1077V23.8383H45.3738C47.3553 23.8383 48.9686 25.4516 48.9686 27.4331V34.2838C49.9876 33.8882 51.0813 33.6768 52.1842 33.6768C57.088 33.6768 61.0766 37.6654 61.0766 42.5692L61.0751 42.5667ZM27.7774 42.5667C27.7774 43.0881 28.2021 43.5128 28.7234 43.5128H39.3182C39.8396 43.5128 40.2643 43.088 40.2643 42.5667V22.8919C40.2643 22.3706 39.8396 21.9458 39.3182 21.9458H28.7234C28.2021 21.9458 27.7774 22.3706 27.7774 22.8919V42.5686V42.5667ZM37.2367 19.1072C37.2367 18.5859 36.812 18.1611 36.2907 18.1611H31.7497C31.2284 18.1611 30.8037 18.5859 30.8037 19.1072V20.8098H37.2367L37.2367 19.1072ZM27.7774 21.0377C27.7956 21.0286 27.8193 21.0249 27.8375 21.0158C27.9287 20.9721 28.0253 20.9393 28.1219 20.9101C28.1693 20.8955 28.213 20.8773 28.2623 20.8663C28.4099 20.8335 28.563 20.8117 28.7216 20.8117H29.6677V19.1091C29.6677 17.9606 30.6011 17.0273 31.7495 17.0273H36.2904C37.4388 17.0273 38.3722 17.9606 38.3722 19.1091V20.8117H39.3182C39.4768 20.8117 39.63 20.8335 39.7776 20.8663C39.8268 20.8773 39.8706 20.8955 39.918 20.9101C40.0164 20.9393 40.1112 20.9739 40.2024 21.0158C40.2224 21.0249 40.2443 21.0286 40.2625 21.0377V19.1072C40.2625 16.9161 38.4797 15.1351 36.2904 15.1351H31.7495C29.5583 15.1351 27.7773 16.9179 27.7773 19.1072L27.7774 21.0377ZM27.3982 53.1613C27.3982 52.2225 26.6344 51.4587 25.6956 51.4587C24.7568 51.4587 23.993 52.2225 23.993 53.1613C23.993 54.1001 24.7568 54.8639 25.6956 54.8639C26.6344 54.8639 27.3982 54.1001 27.3982 53.1613ZM44.0471 53.1613C44.0471 52.2225 43.2833 51.4587 42.3445 51.4587C41.4057 51.4587 40.6419 52.2225 40.6419 53.1613C40.6419 54.1001 41.4057 54.8639 42.3445 54.8639C43.2833 54.8639 44.0471 54.1001 44.0471 53.1613ZM47.8242 50.3194C47.8005 50.3067 47.7823 50.2903 47.7586 50.2775C47.4578 50.1043 47.168 49.9166 46.8927 49.7124C46.8489 49.6796 46.8052 49.6468 46.7596 49.6121C46.488 49.4043 46.231 49.1819 45.9867 48.9468C45.9484 48.9103 45.9101 48.872 45.8737 48.8337C45.6331 48.5931 45.407 48.3397 45.1974 48.0754C45.1664 48.0353 45.1372 47.9952 45.1062 47.9551C44.9002 47.6835 44.707 47.4027 44.5338 47.1093C44.5101 47.0692 44.4883 47.0309 44.4664 46.9908C44.295 46.6918 44.1383 46.3819 44.0015 46.0629L43.9578 45.9535C43.8229 45.6272 43.7062 45.2918 43.6114 44.9491L43.5895 44.8616C43.4966 44.5079 43.42 44.147 43.3708 43.7788C43.369 43.7606 43.3672 43.7441 43.3653 43.7259C43.3161 43.3449 43.2888 42.9585 43.2888 42.5665C43.2888 42.1746 43.3161 41.7863 43.3653 41.4053C43.3672 41.3889 43.369 41.3707 43.3708 41.3543C43.42 40.986 43.4966 40.6233 43.5914 40.2696C43.5987 40.2423 43.6041 40.2131 43.6114 40.1858C43.7062 39.8412 43.8247 39.5058 43.9596 39.1777C43.9742 39.143 43.9869 39.1066 44.0015 39.0701C44.1383 38.7511 44.295 38.4412 44.4682 38.1404C44.4901 38.1022 44.5119 38.062 44.5338 38.0238C44.7088 37.7303 44.9021 37.4477 45.1099 37.1761C45.139 37.1378 45.1682 37.0977 45.1992 37.0594C45.4107 36.7933 45.6367 36.5399 45.8791 36.2975L45.9885 36.1881C46.2328 35.9511 46.4935 35.7269 46.7669 35.5191C46.8089 35.4863 46.8508 35.4553 46.8927 35.4243C47.1716 35.2183 47.4633 35.0287 47.7677 34.8537C47.7896 34.8409 47.8078 34.8263 47.8297 34.8136V27.4346C47.8297 26.0784 46.7268 24.9755 45.3706 24.9755H41.3984V42.5703C41.3984 43.7187 40.4651 44.6521 39.3167 44.6521H28.7219C27.5734 44.6521 26.6401 43.7187 26.6401 42.5703L26.6419 24.9718H22.6698C21.3135 24.9718 20.2107 26.0746 20.2107 27.4309V50.1334C20.2107 51.4896 21.3135 52.5925 22.6698 52.5925H22.9159V52.5907C22.9177 52.5852 22.9195 52.5779 22.9213 52.5725C22.956 52.4047 23.0088 52.2443 23.0726 52.0894C23.0945 52.0365 23.1237 51.9873 23.1492 51.9344C23.2003 51.8305 23.2513 51.7284 23.3133 51.6318C23.3497 51.5753 23.3917 51.5224 23.4318 51.4696C23.4956 51.3857 23.5594 51.3037 23.6323 51.2271C23.6797 51.1761 23.7307 51.1287 23.7818 51.0813C23.8583 51.012 23.9367 50.9464 24.0206 50.8844C24.0771 50.8425 24.1336 50.8024 24.1919 50.7659C24.2813 50.7094 24.376 50.6602 24.4708 50.6146C24.531 50.5854 24.5893 50.5544 24.6531 50.5289C24.7625 50.4852 24.8755 50.4542 24.9904 50.425C25.0469 50.4104 25.1016 50.3904 25.1581 50.3795C25.3331 50.3448 25.5117 50.3248 25.6976 50.3248C25.8818 50.3248 26.0622 50.3448 26.2372 50.3795C26.2955 50.3904 26.3484 50.4104 26.4049 50.425C26.5198 50.4542 26.6328 50.487 26.7422 50.5289C26.8041 50.5545 26.8643 50.5854 26.9245 50.6146C27.0211 50.6602 27.114 50.7094 27.2034 50.7659C27.2635 50.8042 27.3182 50.8443 27.3747 50.8844C27.4586 50.9464 27.537 51.0102 27.6135 51.0813C27.6646 51.1287 27.7156 51.1761 27.763 51.2271C27.8341 51.3037 27.8997 51.3857 27.9635 51.4696C28.0036 51.5224 28.0456 51.5753 28.082 51.6318C28.144 51.7284 28.1969 51.8305 28.2461 51.9344C28.2716 51.9873 28.3008 52.0347 28.3226 52.0894C28.3864 52.2443 28.4375 52.4066 28.4739 52.5725C28.4758 52.5779 28.4776 52.5852 28.4794 52.5907V52.5925H39.5665V52.5907C39.5684 52.5852 39.5702 52.5779 39.572 52.5725C39.6066 52.4047 39.6595 52.2443 39.7233 52.0894C39.7452 52.0365 39.7744 51.9873 39.7999 51.9344C39.8509 51.8305 39.902 51.7284 39.9639 51.6318C40.0004 51.5753 40.0423 51.5224 40.0824 51.4696C40.1462 51.3857 40.21 51.3037 40.283 51.2271C40.3303 51.1761 40.3814 51.1287 40.4324 51.0813C40.509 51.012 40.5874 50.9464 40.6712 50.8844C40.7277 50.8425 40.7843 50.8024 40.8426 50.7659C40.9319 50.7094 41.0267 50.6602 41.1215 50.6146C41.1817 50.5854 41.24 50.5544 41.3038 50.5289C41.4132 50.4852 41.5262 50.4542 41.641 50.425C41.6975 50.4104 41.7522 50.3904 41.8087 50.3795C41.9837 50.3448 42.1624 50.3248 42.3483 50.3248C42.5324 50.3248 42.7129 50.3448 42.8879 50.3795C42.9462 50.3904 42.9991 50.4104 43.0556 50.425C43.1704 50.4542 43.2834 50.487 43.3928 50.5289C43.4548 50.5545 43.515 50.5854 43.5751 50.6146C43.6717 50.6602 43.7647 50.7094 43.854 50.7659C43.9142 50.8042 43.9689 50.8443 44.0254 50.8844C44.1092 50.9464 44.1876 51.0102 44.2642 51.0813C44.3152 51.1287 44.3663 51.1761 44.4137 51.2271C44.4848 51.3037 44.5504 51.3857 44.6142 51.4696C44.6543 51.5224 44.6962 51.5753 44.7327 51.6318C44.7947 51.7284 44.8475 51.8305 44.8967 51.9344C44.9223 51.9873 44.9514 52.0347 44.9733 52.0894C45.0371 52.2443 45.0881 52.4066 45.1246 52.5725C45.1264 52.5779 45.1283 52.5852 45.1301 52.5907V52.5925H45.3762C46.6704 52.5925 47.735 51.5881 47.828 50.3175L47.8242 50.3194ZM59.9394 42.5666C59.9394 38.29 56.4595 34.8101 52.1829 34.8101C50.9378 34.8101 49.7529 35.0945 48.6592 35.656C48.6592 35.656 48.6573 35.656 48.6573 35.6578C47.7751 36.1099 47.0167 36.7205 46.3842 37.4315C45.6149 38.2974 45.037 39.3183 44.7198 40.4412C44.5266 41.1229 44.4263 41.8375 44.4263 42.5685C44.4263 45.4961 46.0469 48.1447 48.6573 49.4794C49.7511 50.0409 50.9378 50.3253 52.1829 50.3253C56.4595 50.3253 59.9394 46.8453 59.9394 42.5687L59.9394 42.5666ZM46.5553 40.5924C46.3001 40.7747 46.2418 41.1301 46.4241 41.3835C46.6064 41.6388 46.96 41.6971 47.2152 41.5148C50.1866 39.3929 54.1789 39.3929 57.1501 41.5148C57.2504 41.5859 57.3652 41.6205 57.4801 41.6205C57.6569 41.6205 57.8319 41.5385 57.9431 41.3835C58.1254 41.1283 58.0653 40.7747 57.8119 40.5924C54.4449 38.188 49.9242 38.188 46.5572 40.5924H46.5553ZM48.0447 43.6385C47.8004 43.8335 47.7603 44.1908 47.9553 44.4351C48.1504 44.6812 48.5077 44.7213 48.7519 44.5244C50.7717 42.9093 53.5918 42.9093 55.6115 44.5244C55.7154 44.6083 55.8412 44.6484 55.9652 44.6484C56.131 44.6484 56.2969 44.5755 56.4081 44.4351C56.6032 44.1908 56.5649 43.8335 56.3188 43.6385C53.8815 41.6898 50.478 41.6898 48.0429 43.6385H48.0447ZM52.1827 44.9729C51.3825 44.9729 50.6405 45.3703 50.1975 46.0356C50.0244 46.2963 50.0936 46.6481 50.3543 46.8231C50.615 46.9981 50.9668 46.927 51.1418 46.6664C51.6139 45.9591 52.7515 45.9591 53.2236 46.6664C53.333 46.8304 53.5134 46.9198 53.6957 46.9198C53.8033 46.9198 53.9126 46.8888 54.0111 46.825C54.2718 46.6518 54.3429 46.2981 54.1679 46.0375C53.7249 45.3721 52.9811 44.9747 52.1827 44.9747L52.1827 44.9729Z" fill="#00416B"/>
</svg>
