<svg width="54" height="54" viewBox="0 0 54 54" fill="none" xmlns="http://www.w3.org/2000/svg">
<rect x="0.5" y="0.5" width="53" height="53" rx="14.5" stroke="#8DF7FF"/>
<path d="M40 16.238C40 15.6445 39.7644 15.0752 39.345 14.6555C38.9255 14.2358 38.3567 14 37.7636 14C36.0726 14.0068 34.4521 14.6781 33.2512 15.8694L31.2121 17.9494L22.5426 16.8304C21.3893 16.6822 20.2229 16.9788 19.28 17.6598L17.1752 19.1606C17.085 19.2297 17.0139 19.3205 16.9684 19.4246C16.9229 19.5287 16.9046 19.6427 16.9151 19.7558C16.9256 19.8689 16.9646 19.9775 17.0285 20.0714C17.0924 20.1654 17.1791 20.2415 17.2804 20.2928L25.1737 24.0974L21.9375 27.823H18.175C17.6524 27.8263 17.1518 28.0343 16.7805 28.4023L15.2018 29.9952C15.1195 30.0731 15.0592 30.1713 15.0268 30.2799C14.9945 30.3885 14.9913 30.5037 15.0177 30.614C15.0455 30.7211 15.0998 30.8195 15.1757 30.9C15.2516 30.9806 15.3465 31.0407 15.4518 31.0747L21.056 32.9573L22.8978 38.5655C22.9319 38.6708 22.9919 38.7659 23.0724 38.8418C23.1529 38.9177 23.2512 38.9721 23.3583 39H23.5556C23.6419 39.001 23.7274 38.984 23.8067 38.95C23.886 38.916 23.9573 38.8657 24.016 38.8025L25.6079 37.2227C25.9756 36.8511 26.1834 36.3502 26.1867 35.8272V32.0753L29.9097 28.8762L33.7117 36.7751C33.7606 36.8791 33.8364 36.968 33.9312 37.0328C34.0261 37.0976 34.1365 37.1359 34.251 37.1437C34.364 37.1547 34.4779 37.1362 34.5817 37.0901C34.6854 37.0439 34.7754 36.9717 34.843 36.8804L36.3428 34.7741C37.0233 33.8306 37.3196 32.6633 37.1716 31.5092L36.0533 22.7941L38.0924 20.7535C39.2973 19.5582 39.9827 17.9357 40 16.238ZM34.9351 22.0964C34.8628 22.1649 34.8073 22.2494 34.7731 22.343C34.7388 22.4367 34.7268 22.537 34.7378 22.6361L35.8692 31.6408C35.9745 32.4605 35.7627 33.2894 35.2772 33.9578L34.4089 35.169L30.7911 27.5334C30.7422 27.4321 30.6682 27.345 30.576 27.2805C30.4839 27.2159 30.3768 27.1761 30.2649 27.1648C30.1658 27.1457 30.0637 27.1487 29.9659 27.1738C29.868 27.1988 29.777 27.2452 29.6992 27.3096L25.0948 31.2591C25.0238 31.3215 24.9671 31.3985 24.9285 31.4848C24.8899 31.5711 24.8703 31.6647 24.8711 31.7593V35.8272C24.8722 35.9136 24.8552 35.9992 24.8212 36.0785C24.7872 36.1579 24.737 36.2292 24.6738 36.288L23.845 37.1174L22.2006 32.2201C22.1699 32.1245 22.1169 32.0377 22.0459 31.9667C21.975 31.8957 21.8882 31.8427 21.7928 31.812L16.8857 30.1664L17.7145 29.337C17.7733 29.2738 17.8446 29.2235 17.9239 29.1895C18.0032 29.1555 18.0887 29.1385 18.175 29.1395H22.24C22.3345 29.1403 22.4281 29.1208 22.5144 29.0822C22.6006 29.0435 22.6776 28.9868 22.7399 28.9157L26.6866 24.308C26.7533 24.2313 26.802 24.1407 26.8293 24.0428C26.8566 23.9449 26.8618 23.8421 26.8445 23.742C26.8245 23.643 26.7821 23.55 26.7205 23.4702C26.6589 23.3903 26.5798 23.3256 26.4893 23.2812L18.8591 19.595L20.0694 18.7262C20.7367 18.2495 21.5573 18.0384 22.3716 18.1337L31.37 19.2659C31.4691 19.278 31.5696 19.2664 31.6634 19.2321C31.7572 19.1978 31.8414 19.1417 31.9094 19.0684L34.1853 16.8041C35.1355 15.8556 36.4215 15.321 37.7636 15.3165C38.0078 15.3165 38.242 15.4136 38.4147 15.5864C38.5874 15.7592 38.6844 15.9936 38.6844 16.238C38.6799 17.581 38.1457 18.868 37.1979 19.8188L34.9351 22.0964Z" fill="#8DF7FF"/>
</svg>
