<svg width="18" height="19" viewBox="0 0 18 19" fill="none" xmlns="http://www.w3.org/2000/svg">
<g clip-path="url(#clip0_30_3081)">
<path d="M5.04487 0.189941C5.1269 0.189941 5.206 0.210449 5.28217 0.251465C5.35834 0.29248 5.41987 0.342285 5.46674 0.400879L10.371 7.08057L17.1035 0.348145C17.1972 0.242676 17.3173 0.189941 17.4638 0.189941C17.6103 0.189941 17.7363 0.242676 17.8417 0.348145C17.9472 0.453613 17.9999 0.57959 17.9999 0.726074C17.9999 0.872559 17.9472 0.992676 17.8417 1.08643L11.0038 7.94189L17.8945 17.3462C18.0234 17.522 18.038 17.7065 17.9384 17.8999C17.8388 18.0933 17.6835 18.1899 17.4726 18.1899H12.955C12.873 18.1899 12.7939 18.1694 12.7177 18.1284C12.6415 18.0874 12.58 18.0376 12.5331 17.979L7.62885 11.2993L0.896428 18.0317C0.802678 18.1372 0.682561 18.1899 0.536076 18.1899C0.389592 18.1899 0.263616 18.1372 0.158147 18.0317C0.052678 17.9263 -5.63404e-05 17.8003 -5.63404e-05 17.6538C-5.63404e-05 17.5073 0.052678 17.3872 0.158147 17.2935L6.99604 10.438L0.105412 1.03369C-0.0234938 0.85791 -0.0381423 0.67334 0.0614671 0.47998C0.161076 0.286621 0.31635 0.189941 0.527287 0.189941H5.04487ZM4.78119 1.24463H1.58197L13.2187 17.1353H16.4179L9.86127 8.18799C9.86127 8.18799 9.86127 8.18506 9.86127 8.1792C9.86127 8.17334 9.85541 8.17041 9.84369 8.17041L4.78119 1.24463Z" fill="#E6E9EB"/>
</g>
<defs>
<clipPath id="clip0_30_3081">
<rect width="18" height="18" fill="white" transform="matrix(1 0 0 -1 0 18.1899)"/>
</clipPath>
</defs>
</svg>
